<?xml version="1.0" encoding="utf-8"?>
<svg xmlns="http://www.w3.org/2000/svg" xmlns:xlink="http://www.w3.org/1999/xlink" width="600" height="400" viewBox="0 0 2400 1600">
<defs>
  <clipPath id="clip240">
    <rect x="0" y="0" width="2400" height="1600"/>
  </clipPath>
</defs>
<path clip-path="url(#clip240)" d="
M0 1600 L2400 1600 L2400 0 L0 0  Z
  " fill="#ffffff" fill-rule="evenodd" fill-opacity="1"/>
<defs>
  <clipPath id="clip241">
    <rect x="480" y="0" width="1681" height="1600"/>
  </clipPath>
</defs>
<path clip-path="url(#clip240)" d="
M249.542 1423.18 L2352.76 1423.18 L2352.76 123.472 L249.542 123.472  Z
  " fill="#ffffff" fill-rule="evenodd" fill-opacity="1"/>
<defs>
  <clipPath id="clip242">
    <rect x="249" y="123" width="2104" height="1301"/>
  </clipPath>
</defs>
<polyline clip-path="url(#clip242)" style="stroke:#000000; stroke-width:2; stroke-opacity:0.1; fill:none" points="
  309.067,1423.18 309.067,123.472 
  "/>
<polyline clip-path="url(#clip242)" style="stroke:#000000; stroke-width:2; stroke-opacity:0.1; fill:none" points="
  805.108,1423.18 805.108,123.472 
  "/>
<polyline clip-path="url(#clip242)" style="stroke:#000000; stroke-width:2; stroke-opacity:0.1; fill:none" points="
  1301.15,1423.18 1301.15,123.472 
  "/>
<polyline clip-path="url(#clip242)" style="stroke:#000000; stroke-width:2; stroke-opacity:0.1; fill:none" points="
  1797.19,1423.18 1797.19,123.472 
  "/>
<polyline clip-path="url(#clip242)" style="stroke:#000000; stroke-width:2; stroke-opacity:0.1; fill:none" points="
  2293.23,1423.18 2293.23,123.472 
  "/>
<polyline clip-path="url(#clip240)" style="stroke:#000000; stroke-width:4; stroke-opacity:1; fill:none" points="
  249.542,1423.18 2352.76,1423.18 
  "/>
<polyline clip-path="url(#clip240)" style="stroke:#000000; stroke-width:4; stroke-opacity:1; fill:none" points="
  309.067,1423.18 309.067,1407.58 
  "/>
<polyline clip-path="url(#clip240)" style="stroke:#000000; stroke-width:4; stroke-opacity:1; fill:none" points="
  805.108,1423.18 805.108,1407.58 
  "/>
<polyline clip-path="url(#clip240)" style="stroke:#000000; stroke-width:4; stroke-opacity:1; fill:none" points="
  1301.15,1423.18 1301.15,1407.58 
  "/>
<polyline clip-path="url(#clip240)" style="stroke:#000000; stroke-width:4; stroke-opacity:1; fill:none" points="
  1797.19,1423.18 1797.19,1407.58 
  "/>
<polyline clip-path="url(#clip240)" style="stroke:#000000; stroke-width:4; stroke-opacity:1; fill:none" points="
  2293.23,1423.18 2293.23,1407.58 
  "/>
<path clip-path="url(#clip240)" d="M 0 0 M271.37 1452.37 Q267.759 1452.37 265.931 1455.94 Q264.125 1459.48 264.125 1466.61 Q264.125 1473.71 265.931 1477.28 Q267.759 1480.82 271.37 1480.82 Q275.005 1480.82 276.81 1477.28 Q278.639 1473.71 278.639 1466.61 Q278.639 1459.48 276.81 1455.94 Q275.005 1452.37 271.37 1452.37 M271.37 1448.67 Q277.181 1448.67 280.236 1453.27 Q283.315 1457.86 283.315 1466.61 Q283.315 1475.33 280.236 1479.94 Q277.181 1484.52 271.37 1484.52 Q265.56 1484.52 262.482 1479.94 Q259.426 1475.33 259.426 1466.61 Q259.426 1457.86 262.482 1453.27 Q265.56 1448.67 271.37 1448.67 Z" fill="#000000" fill-rule="evenodd" fill-opacity="1" /><path clip-path="url(#clip240)" d="M 0 0 M291.532 1477.97 L296.417 1477.97 L296.417 1483.85 L291.532 1483.85 L291.532 1477.97 Z" fill="#000000" fill-rule="evenodd" fill-opacity="1" /><path clip-path="url(#clip240)" d="M 0 0 M316.602 1452.37 Q312.991 1452.37 311.162 1455.94 Q309.356 1459.48 309.356 1466.61 Q309.356 1473.71 311.162 1477.28 Q312.991 1480.82 316.602 1480.82 Q320.236 1480.82 322.041 1477.28 Q323.87 1473.71 323.87 1466.61 Q323.87 1459.48 322.041 1455.94 Q320.236 1452.37 316.602 1452.37 M316.602 1448.67 Q322.412 1448.67 325.467 1453.27 Q328.546 1457.86 328.546 1466.61 Q328.546 1475.33 325.467 1479.94 Q322.412 1484.52 316.602 1484.52 Q310.791 1484.52 307.713 1479.94 Q304.657 1475.33 304.657 1466.61 Q304.657 1457.86 307.713 1453.27 Q310.791 1448.67 316.602 1448.67 Z" fill="#000000" fill-rule="evenodd" fill-opacity="1" /><path clip-path="url(#clip240)" d="M 0 0 M346.764 1452.37 Q343.152 1452.37 341.324 1455.94 Q339.518 1459.48 339.518 1466.61 Q339.518 1473.71 341.324 1477.28 Q343.152 1480.82 346.764 1480.82 Q350.398 1480.82 352.203 1477.28 Q354.032 1473.71 354.032 1466.61 Q354.032 1459.48 352.203 1455.94 Q350.398 1452.37 346.764 1452.37 M346.764 1448.67 Q352.574 1448.67 355.629 1453.27 Q358.708 1457.86 358.708 1466.61 Q358.708 1475.33 355.629 1479.94 Q352.574 1484.52 346.764 1484.52 Q340.953 1484.52 337.875 1479.94 Q334.819 1475.33 334.819 1466.61 Q334.819 1457.86 337.875 1453.27 Q340.953 1448.67 346.764 1448.67 Z" fill="#000000" fill-rule="evenodd" fill-opacity="1" /><path clip-path="url(#clip240)" d="M 0 0 M767.909 1452.37 Q764.298 1452.37 762.469 1455.94 Q760.664 1459.48 760.664 1466.61 Q760.664 1473.71 762.469 1477.28 Q764.298 1480.82 767.909 1480.82 Q771.543 1480.82 773.349 1477.28 Q775.178 1473.71 775.178 1466.61 Q775.178 1459.48 773.349 1455.94 Q771.543 1452.37 767.909 1452.37 M767.909 1448.67 Q773.719 1448.67 776.775 1453.27 Q779.853 1457.86 779.853 1466.61 Q779.853 1475.33 776.775 1479.94 Q773.719 1484.52 767.909 1484.52 Q762.099 1484.52 759.02 1479.94 Q755.965 1475.33 755.965 1466.61 Q755.965 1457.86 759.02 1453.27 Q762.099 1448.67 767.909 1448.67 Z" fill="#000000" fill-rule="evenodd" fill-opacity="1" /><path clip-path="url(#clip240)" d="M 0 0 M788.071 1477.97 L792.955 1477.97 L792.955 1483.85 L788.071 1483.85 L788.071 1477.97 Z" fill="#000000" fill-rule="evenodd" fill-opacity="1" /><path clip-path="url(#clip240)" d="M 0 0 M807.168 1479.92 L823.487 1479.92 L823.487 1483.85 L801.543 1483.85 L801.543 1479.92 Q804.205 1477.16 808.788 1472.53 Q813.395 1467.88 814.576 1466.54 Q816.821 1464.01 817.7 1462.28 Q818.603 1460.52 818.603 1458.83 Q818.603 1456.07 816.659 1454.34 Q814.738 1452.6 811.636 1452.6 Q809.437 1452.6 806.983 1453.37 Q804.552 1454.13 801.775 1455.68 L801.775 1450.96 Q804.599 1449.82 807.052 1449.25 Q809.506 1448.67 811.543 1448.67 Q816.913 1448.67 820.108 1451.35 Q823.302 1454.04 823.302 1458.53 Q823.302 1460.66 822.492 1462.58 Q821.705 1464.48 819.599 1467.07 Q819.02 1467.74 815.918 1470.96 Q812.816 1474.15 807.168 1479.92 Z" fill="#000000" fill-rule="evenodd" fill-opacity="1" /><path clip-path="url(#clip240)" d="M 0 0 M833.349 1449.29 L851.705 1449.29 L851.705 1453.23 L837.631 1453.23 L837.631 1461.7 Q838.649 1461.35 839.668 1461.19 Q840.686 1461 841.705 1461 Q847.492 1461 850.872 1464.18 Q854.251 1467.35 854.251 1472.76 Q854.251 1478.34 850.779 1481.44 Q847.307 1484.52 840.987 1484.52 Q838.811 1484.52 836.543 1484.15 Q834.298 1483.78 831.89 1483.04 L831.89 1478.34 Q833.974 1479.48 836.196 1480.03 Q838.418 1480.59 840.895 1480.59 Q844.899 1480.59 847.237 1478.48 Q849.575 1476.38 849.575 1472.76 Q849.575 1469.15 847.237 1467.05 Q844.899 1464.94 840.895 1464.94 Q839.02 1464.94 837.145 1465.36 Q835.293 1465.77 833.349 1466.65 L833.349 1449.29 Z" fill="#000000" fill-rule="evenodd" fill-opacity="1" /><path clip-path="url(#clip240)" d="M 0 0 M1263.45 1452.37 Q1259.84 1452.37 1258.01 1455.94 Q1256.21 1459.48 1256.21 1466.61 Q1256.21 1473.71 1258.01 1477.28 Q1259.84 1480.82 1263.45 1480.82 Q1267.09 1480.82 1268.89 1477.28 Q1270.72 1473.71 1270.72 1466.61 Q1270.72 1459.48 1268.89 1455.94 Q1267.09 1452.37 1263.45 1452.37 M1263.45 1448.67 Q1269.26 1448.67 1272.32 1453.27 Q1275.4 1457.86 1275.4 1466.61 Q1275.4 1475.33 1272.32 1479.94 Q1269.26 1484.52 1263.45 1484.52 Q1257.64 1484.52 1254.56 1479.94 Q1251.51 1475.33 1251.51 1466.61 Q1251.51 1457.86 1254.56 1453.27 Q1257.64 1448.67 1263.45 1448.67 Z" fill="#000000" fill-rule="evenodd" fill-opacity="1" /><path clip-path="url(#clip240)" d="M 0 0 M1283.61 1477.97 L1288.5 1477.97 L1288.5 1483.85 L1283.61 1483.85 L1283.61 1477.97 Z" fill="#000000" fill-rule="evenodd" fill-opacity="1" /><path clip-path="url(#clip240)" d="M 0 0 M1298.73 1449.29 L1317.09 1449.29 L1317.09 1453.23 L1303.01 1453.23 L1303.01 1461.7 Q1304.03 1461.35 1305.05 1461.19 Q1306.07 1461 1307.09 1461 Q1312.87 1461 1316.25 1464.18 Q1319.63 1467.35 1319.63 1472.76 Q1319.63 1478.34 1316.16 1481.44 Q1312.69 1484.52 1306.37 1484.52 Q1304.19 1484.52 1301.92 1484.15 Q1299.68 1483.78 1297.27 1483.04 L1297.27 1478.34 Q1299.35 1479.48 1301.58 1480.03 Q1303.8 1480.59 1306.28 1480.59 Q1310.28 1480.59 1312.62 1478.48 Q1314.96 1476.38 1314.96 1472.76 Q1314.96 1469.15 1312.62 1467.05 Q1310.28 1464.94 1306.28 1464.94 Q1304.4 1464.94 1302.53 1465.36 Q1300.67 1465.77 1298.73 1466.65 L1298.73 1449.29 Z" fill="#000000" fill-rule="evenodd" fill-opacity="1" /><path clip-path="url(#clip240)" d="M 0 0 M1338.85 1452.37 Q1335.23 1452.37 1333.41 1455.94 Q1331.6 1459.48 1331.6 1466.61 Q1331.6 1473.71 1333.41 1477.28 Q1335.23 1480.82 1338.85 1480.82 Q1342.48 1480.82 1344.29 1477.28 Q1346.11 1473.71 1346.11 1466.61 Q1346.11 1459.48 1344.29 1455.94 Q1342.48 1452.37 1338.85 1452.37 M1338.85 1448.67 Q1344.66 1448.67 1347.71 1453.27 Q1350.79 1457.86 1350.79 1466.61 Q1350.79 1475.33 1347.71 1479.94 Q1344.66 1484.52 1338.85 1484.52 Q1333.04 1484.52 1329.96 1479.94 Q1326.9 1475.33 1326.9 1466.61 Q1326.9 1457.86 1329.96 1453.27 Q1333.04 1448.67 1338.85 1448.67 Z" fill="#000000" fill-rule="evenodd" fill-opacity="1" /><path clip-path="url(#clip240)" d="M 0 0 M1759.99 1452.37 Q1756.38 1452.37 1754.55 1455.94 Q1752.75 1459.48 1752.75 1466.61 Q1752.75 1473.71 1754.55 1477.28 Q1756.38 1480.82 1759.99 1480.82 Q1763.63 1480.82 1765.43 1477.28 Q1767.26 1473.71 1767.26 1466.61 Q1767.26 1459.48 1765.43 1455.94 Q1763.63 1452.37 1759.99 1452.37 M1759.99 1448.67 Q1765.8 1448.67 1768.86 1453.27 Q1771.94 1457.86 1771.94 1466.61 Q1771.94 1475.33 1768.86 1479.94 Q1765.8 1484.52 1759.99 1484.52 Q1754.18 1484.52 1751.1 1479.94 Q1748.05 1475.33 1748.05 1466.61 Q1748.05 1457.86 1751.1 1453.27 Q1754.18 1448.67 1759.99 1448.67 Z" fill="#000000" fill-rule="evenodd" fill-opacity="1" /><path clip-path="url(#clip240)" d="M 0 0 M1780.15 1477.97 L1785.04 1477.97 L1785.04 1483.85 L1780.15 1483.85 L1780.15 1477.97 Z" fill="#000000" fill-rule="evenodd" fill-opacity="1" /><path clip-path="url(#clip240)" d="M 0 0 M1794.04 1449.29 L1816.26 1449.29 L1816.26 1451.28 L1803.72 1483.85 L1798.83 1483.85 L1810.64 1453.23 L1794.04 1453.23 L1794.04 1449.29 Z" fill="#000000" fill-rule="evenodd" fill-opacity="1" /><path clip-path="url(#clip240)" d="M 0 0 M1825.43 1449.29 L1843.79 1449.29 L1843.79 1453.23 L1829.71 1453.23 L1829.71 1461.7 Q1830.73 1461.35 1831.75 1461.19 Q1832.77 1461 1833.79 1461 Q1839.57 1461 1842.95 1464.18 Q1846.33 1467.35 1846.33 1472.76 Q1846.33 1478.34 1842.86 1481.44 Q1839.39 1484.52 1833.07 1484.52 Q1830.89 1484.52 1828.62 1484.15 Q1826.38 1483.78 1823.97 1483.04 L1823.97 1478.34 Q1826.06 1479.48 1828.28 1480.03 Q1830.5 1480.59 1832.98 1480.59 Q1836.98 1480.59 1839.32 1478.48 Q1841.66 1476.38 1841.66 1472.76 Q1841.66 1469.15 1839.32 1467.05 Q1836.98 1464.94 1832.98 1464.94 Q1831.1 1464.94 1829.23 1465.36 Q1827.38 1465.77 1825.43 1466.65 L1825.43 1449.29 Z" fill="#000000" fill-rule="evenodd" fill-opacity="1" /><path clip-path="url(#clip240)" d="M 0 0 M2245.3 1479.92 L2252.94 1479.92 L2252.94 1453.55 L2244.63 1455.22 L2244.63 1450.96 L2252.9 1449.29 L2257.57 1449.29 L2257.57 1479.92 L2265.21 1479.92 L2265.21 1483.85 L2245.3 1483.85 L2245.3 1479.92 Z" fill="#000000" fill-rule="evenodd" fill-opacity="1" /><path clip-path="url(#clip240)" d="M 0 0 M2274.65 1477.97 L2279.54 1477.97 L2279.54 1483.85 L2274.65 1483.85 L2274.65 1477.97 Z" fill="#000000" fill-rule="evenodd" fill-opacity="1" /><path clip-path="url(#clip240)" d="M 0 0 M2299.72 1452.37 Q2296.11 1452.37 2294.28 1455.94 Q2292.48 1459.48 2292.48 1466.61 Q2292.48 1473.71 2294.28 1477.28 Q2296.11 1480.82 2299.72 1480.82 Q2303.36 1480.82 2305.16 1477.28 Q2306.99 1473.71 2306.99 1466.61 Q2306.99 1459.48 2305.16 1455.94 Q2303.36 1452.37 2299.72 1452.37 M2299.72 1448.67 Q2305.53 1448.67 2308.59 1453.27 Q2311.67 1457.86 2311.67 1466.61 Q2311.67 1475.33 2308.59 1479.94 Q2305.53 1484.52 2299.72 1484.52 Q2293.91 1484.52 2290.84 1479.94 Q2287.78 1475.33 2287.78 1466.61 Q2287.78 1457.86 2290.84 1453.27 Q2293.91 1448.67 2299.72 1448.67 Z" fill="#000000" fill-rule="evenodd" fill-opacity="1" /><path clip-path="url(#clip240)" d="M 0 0 M2329.89 1452.37 Q2326.27 1452.37 2324.45 1455.94 Q2322.64 1459.48 2322.64 1466.61 Q2322.64 1473.71 2324.45 1477.28 Q2326.27 1480.82 2329.89 1480.82 Q2333.52 1480.82 2335.33 1477.28 Q2337.15 1473.71 2337.15 1466.61 Q2337.15 1459.48 2335.33 1455.94 Q2333.52 1452.37 2329.89 1452.37 M2329.89 1448.67 Q2335.7 1448.67 2338.75 1453.27 Q2341.83 1457.86 2341.83 1466.61 Q2341.83 1475.33 2338.75 1479.94 Q2335.7 1484.52 2329.89 1484.52 Q2324.08 1484.52 2321 1479.94 Q2317.94 1475.33 2317.94 1466.61 Q2317.94 1457.86 2321 1453.27 Q2324.08 1448.67 2329.89 1448.67 Z" fill="#000000" fill-rule="evenodd" fill-opacity="1" /><path clip-path="url(#clip240)" d="M 0 0 M1015.44 1547.13 Q1012.67 1547.13 1011.08 1549.49 Q1009.52 1551.84 1009.52 1556.04 Q1009.52 1560.18 1011.08 1562.57 Q1012.67 1564.92 1015.44 1564.92 Q1018.15 1564.92 1019.71 1562.57 Q1021.3 1560.18 1021.3 1556.04 Q1021.3 1551.87 1019.71 1549.52 Q1018.15 1547.13 1015.44 1547.13 M1015.44 1543.09 Q1020.47 1543.09 1023.43 1546.59 Q1026.39 1550.09 1026.39 1556.04 Q1026.39 1562 1023.4 1565.5 Q1020.44 1568.97 1015.44 1568.97 Q1010.35 1568.97 1007.39 1565.5 Q1004.43 1562 1004.43 1556.04 Q1004.43 1550.06 1007.39 1546.59 Q1010.38 1543.09 1015.44 1543.09 M982.593 1523.71 Q979.856 1523.71 978.264 1526.09 Q976.705 1528.45 976.705 1532.59 Q976.705 1536.79 978.264 1539.14 Q979.824 1541.5 982.593 1541.5 Q985.362 1541.5 986.922 1539.14 Q988.513 1536.79 988.513 1532.59 Q988.513 1528.48 986.922 1526.09 Q985.33 1523.71 982.593 1523.71 M1011.33 1519.66 L1016.43 1519.66 L986.699 1568.97 L981.606 1568.97 L1011.33 1519.66 M982.593 1519.66 Q987.622 1519.66 990.614 1523.17 Q993.606 1526.63 993.606 1532.59 Q993.606 1538.6 990.614 1542.07 Q987.654 1545.54 982.593 1545.54 Q977.532 1545.54 974.572 1542.07 Q971.644 1538.57 971.644 1532.59 Q971.644 1526.67 974.604 1523.17 Q977.564 1519.66 982.593 1519.66 Z" fill="#000000" fill-rule="evenodd" fill-opacity="1" /><path clip-path="url(#clip240)" d="M 0 0 M1085.59 1522.08 L1085.59 1528.35 Q1081.93 1526.6 1078.68 1525.74 Q1075.44 1524.88 1072.41 1524.88 Q1067.16 1524.88 1064.3 1526.92 Q1061.46 1528.96 1061.46 1532.71 Q1061.46 1535.87 1063.34 1537.49 Q1065.25 1539.08 1070.54 1540.07 L1074.42 1540.86 Q1081.61 1542.23 1085.02 1545.7 Q1088.45 1549.14 1088.45 1554.93 Q1088.45 1561.84 1083.81 1565.4 Q1079.19 1568.97 1070.25 1568.97 Q1066.88 1568.97 1063.06 1568.2 Q1059.27 1567.44 1055.19 1565.94 L1055.19 1559.32 Q1059.11 1561.52 1062.86 1562.63 Q1066.62 1563.75 1070.25 1563.75 Q1075.76 1563.75 1078.75 1561.58 Q1081.74 1559.42 1081.74 1555.41 Q1081.74 1551.91 1079.57 1549.93 Q1077.44 1547.96 1072.54 1546.97 L1068.63 1546.21 Q1061.43 1544.78 1058.22 1541.72 Q1055 1538.67 1055 1533.22 Q1055 1526.92 1059.43 1523.29 Q1063.88 1519.66 1071.68 1519.66 Q1075.02 1519.66 1078.49 1520.27 Q1081.96 1520.87 1085.59 1522.08 Z" fill="#000000" fill-rule="evenodd" fill-opacity="1" /><path clip-path="url(#clip240)" d="M 0 0 M1097.62 1553.98 L1097.62 1532.4 L1103.48 1532.4 L1103.48 1553.75 Q1103.48 1558.81 1105.45 1561.36 Q1107.42 1563.87 1111.37 1563.87 Q1116.11 1563.87 1118.85 1560.85 Q1121.62 1557.83 1121.62 1552.61 L1121.62 1532.4 L1127.48 1532.4 L1127.48 1568.04 L1121.62 1568.04 L1121.62 1562.57 Q1119.49 1565.82 1116.65 1567.41 Q1113.85 1568.97 1110.13 1568.97 Q1103.99 1568.97 1100.8 1565.15 Q1097.62 1561.33 1097.62 1553.98 M1112.36 1531.54 L1112.36 1531.54 Z" fill="#000000" fill-rule="evenodd" fill-opacity="1" /><path clip-path="url(#clip240)" d="M 0 0 M1145.21 1562.7 L1145.21 1581.6 L1139.32 1581.6 L1139.32 1532.4 L1145.21 1532.4 L1145.21 1537.81 Q1147.05 1534.62 1149.85 1533.1 Q1152.68 1531.54 1156.6 1531.54 Q1163.09 1531.54 1167.13 1536.69 Q1171.21 1541.85 1171.21 1550.25 Q1171.21 1558.65 1167.13 1563.81 Q1163.09 1568.97 1156.6 1568.97 Q1152.68 1568.97 1149.85 1567.44 Q1147.05 1565.88 1145.21 1562.7 M1165.13 1550.25 Q1165.13 1543.79 1162.46 1540.13 Q1159.81 1536.44 1155.17 1536.44 Q1150.52 1536.44 1147.85 1540.13 Q1145.21 1543.79 1145.21 1550.25 Q1145.21 1556.71 1147.85 1560.4 Q1150.52 1564.07 1155.17 1564.07 Q1159.81 1564.07 1162.46 1560.4 Q1165.13 1556.71 1165.13 1550.25 Z" fill="#000000" fill-rule="evenodd" fill-opacity="1" /><path clip-path="url(#clip240)" d="M 0 0 M1211.41 1548.76 L1211.41 1551.62 L1184.48 1551.62 Q1184.86 1557.67 1188.11 1560.85 Q1191.39 1564 1197.21 1564 Q1200.59 1564 1203.74 1563.17 Q1206.92 1562.35 1210.04 1560.69 L1210.04 1566.23 Q1206.89 1567.57 1203.58 1568.27 Q1200.27 1568.97 1196.86 1568.97 Q1188.33 1568.97 1183.34 1564 Q1178.37 1559.04 1178.37 1550.57 Q1178.37 1541.82 1183.08 1536.69 Q1187.82 1531.54 1195.84 1531.54 Q1203.04 1531.54 1207.21 1536.18 Q1211.41 1540.8 1211.41 1548.76 M1205.55 1547.04 Q1205.49 1542.23 1202.85 1539.37 Q1200.24 1536.5 1195.91 1536.5 Q1191.01 1536.5 1188.05 1539.27 Q1185.12 1542.04 1184.67 1547.07 L1205.55 1547.04 Z" fill="#000000" fill-rule="evenodd" fill-opacity="1" /><path clip-path="url(#clip240)" d="M 0 0 M1241.68 1537.87 Q1240.69 1537.3 1239.51 1537.04 Q1238.37 1536.76 1236.97 1536.76 Q1232 1536.76 1229.33 1540 Q1226.69 1543.22 1226.69 1549.27 L1226.69 1568.04 L1220.8 1568.04 L1220.8 1532.4 L1226.69 1532.4 L1226.69 1537.93 Q1228.53 1534.69 1231.49 1533.13 Q1234.45 1531.54 1238.69 1531.54 Q1239.29 1531.54 1240.02 1531.63 Q1240.75 1531.7 1241.65 1531.85 L1241.68 1537.87 Z" fill="#000000" fill-rule="evenodd" fill-opacity="1" /><path clip-path="url(#clip240)" d="M 0 0 M1304.38 1524.18 L1304.38 1530.96 Q1301.13 1527.94 1297.44 1526.44 Q1293.78 1524.95 1289.64 1524.95 Q1281.49 1524.95 1277.17 1529.95 Q1272.84 1534.91 1272.84 1544.33 Q1272.84 1553.72 1277.17 1558.72 Q1281.49 1563.68 1289.64 1563.68 Q1293.78 1563.68 1297.44 1562.19 Q1301.13 1560.69 1304.38 1557.67 L1304.38 1564.38 Q1301.01 1566.68 1297.22 1567.82 Q1293.46 1568.97 1289.26 1568.97 Q1278.47 1568.97 1272.26 1562.38 Q1266.06 1555.76 1266.06 1544.33 Q1266.06 1532.87 1272.26 1526.28 Q1278.47 1519.66 1289.26 1519.66 Q1293.53 1519.66 1297.28 1520.81 Q1301.07 1521.92 1304.38 1524.18 Z" fill="#000000" fill-rule="evenodd" fill-opacity="1" /><path clip-path="url(#clip240)" d="M 0 0 M1327.87 1536.5 Q1323.16 1536.5 1320.42 1540.19 Q1317.68 1543.85 1317.68 1550.25 Q1317.68 1556.65 1320.39 1560.34 Q1323.13 1564 1327.87 1564 Q1332.55 1564 1335.29 1560.31 Q1338.02 1556.62 1338.02 1550.25 Q1338.02 1543.92 1335.29 1540.23 Q1332.55 1536.5 1327.87 1536.5 M1327.87 1531.54 Q1335.51 1531.54 1339.87 1536.5 Q1344.23 1541.47 1344.23 1550.25 Q1344.23 1559 1339.87 1564 Q1335.51 1568.97 1327.87 1568.97 Q1320.2 1568.97 1315.84 1564 Q1311.51 1559 1311.51 1550.25 Q1311.51 1541.47 1315.84 1536.5 Q1320.2 1531.54 1327.87 1531.54 Z" fill="#000000" fill-rule="evenodd" fill-opacity="1" /><path clip-path="url(#clip240)" d="M 0 0 M1383.57 1546.53 L1383.57 1568.04 L1377.71 1568.04 L1377.71 1546.72 Q1377.71 1541.66 1375.74 1539.14 Q1373.77 1536.63 1369.82 1536.63 Q1365.08 1536.63 1362.34 1539.65 Q1359.6 1542.68 1359.6 1547.9 L1359.6 1568.04 L1353.71 1568.04 L1353.71 1532.4 L1359.6 1532.4 L1359.6 1537.93 Q1361.7 1534.72 1364.54 1533.13 Q1367.4 1531.54 1371.12 1531.54 Q1377.27 1531.54 1380.42 1535.36 Q1383.57 1539.14 1383.57 1546.53 Z" fill="#000000" fill-rule="evenodd" fill-opacity="1" /><path clip-path="url(#clip240)" d="M 0 0 M1418.71 1537.81 L1418.71 1518.52 L1424.56 1518.52 L1424.56 1568.04 L1418.71 1568.04 L1418.71 1562.7 Q1416.86 1565.88 1414.03 1567.44 Q1411.23 1568.97 1407.28 1568.97 Q1400.82 1568.97 1396.75 1563.81 Q1392.7 1558.65 1392.7 1550.25 Q1392.7 1541.85 1396.75 1536.69 Q1400.82 1531.54 1407.28 1531.54 Q1411.23 1531.54 1414.03 1533.1 Q1416.86 1534.62 1418.71 1537.81 M1398.75 1550.25 Q1398.75 1556.71 1401.39 1560.4 Q1404.07 1564.07 1408.71 1564.07 Q1413.36 1564.07 1416.03 1560.4 Q1418.71 1556.71 1418.71 1550.25 Q1418.71 1543.79 1416.03 1540.13 Q1413.36 1536.44 1408.71 1536.44 Q1404.07 1536.44 1401.39 1540.13 Q1398.75 1543.79 1398.75 1550.25 Z" fill="#000000" fill-rule="evenodd" fill-opacity="1" /><path clip-path="url(#clip240)" d="M 0 0 M1436.02 1553.98 L1436.02 1532.4 L1441.88 1532.4 L1441.88 1553.75 Q1441.88 1558.81 1443.85 1561.36 Q1445.83 1563.87 1449.77 1563.87 Q1454.51 1563.87 1457.25 1560.85 Q1460.02 1557.83 1460.02 1552.61 L1460.02 1532.4 L1465.88 1532.4 L1465.88 1568.04 L1460.02 1568.04 L1460.02 1562.57 Q1457.89 1565.82 1455.06 1567.41 Q1452.25 1568.97 1448.53 1568.97 Q1442.39 1568.97 1439.21 1565.15 Q1436.02 1561.33 1436.02 1553.98 M1450.76 1531.54 L1450.76 1531.54 Z" fill="#000000" fill-rule="evenodd" fill-opacity="1" /><path clip-path="url(#clip240)" d="M 0 0 M1503.59 1533.76 L1503.59 1539.24 Q1501.11 1537.87 1498.6 1537.2 Q1496.11 1536.5 1493.57 1536.5 Q1487.87 1536.5 1484.72 1540.13 Q1481.57 1543.73 1481.57 1550.25 Q1481.57 1556.78 1484.72 1560.4 Q1487.87 1564 1493.57 1564 Q1496.11 1564 1498.6 1563.33 Q1501.11 1562.63 1503.59 1561.26 L1503.59 1566.68 Q1501.14 1567.82 1498.5 1568.39 Q1495.89 1568.97 1492.93 1568.97 Q1484.88 1568.97 1480.14 1563.91 Q1475.39 1558.85 1475.39 1550.25 Q1475.39 1541.53 1480.17 1536.53 Q1484.97 1531.54 1493.31 1531.54 Q1496.02 1531.54 1498.6 1532.11 Q1501.18 1532.65 1503.59 1533.76 Z" fill="#000000" fill-rule="evenodd" fill-opacity="1" /><path clip-path="url(#clip240)" d="M 0 0 M1519.57 1522.27 L1519.57 1532.4 L1531.64 1532.4 L1531.64 1536.95 L1519.57 1536.95 L1519.57 1556.3 Q1519.57 1560.66 1520.75 1561.9 Q1521.96 1563.14 1525.62 1563.14 L1531.64 1563.14 L1531.64 1568.04 L1525.62 1568.04 Q1518.84 1568.04 1516.26 1565.53 Q1513.68 1562.98 1513.68 1556.3 L1513.68 1536.95 L1509.39 1536.95 L1509.39 1532.4 L1513.68 1532.4 L1513.68 1522.27 L1519.57 1522.27 Z" fill="#000000" fill-rule="evenodd" fill-opacity="1" /><path clip-path="url(#clip240)" d="M 0 0 M1553.15 1536.5 Q1548.44 1536.5 1545.7 1540.19 Q1542.97 1543.85 1542.97 1550.25 Q1542.97 1556.65 1545.67 1560.34 Q1548.41 1564 1553.15 1564 Q1557.83 1564 1560.57 1560.31 Q1563.3 1556.62 1563.3 1550.25 Q1563.3 1543.92 1560.57 1540.23 Q1557.83 1536.5 1553.15 1536.5 M1553.15 1531.54 Q1560.79 1531.54 1565.15 1536.5 Q1569.51 1541.47 1569.51 1550.25 Q1569.51 1559 1565.15 1564 Q1560.79 1568.97 1553.15 1568.97 Q1545.48 1568.97 1541.12 1564 Q1536.79 1559 1536.79 1550.25 Q1536.79 1541.47 1541.12 1536.5 Q1545.48 1531.54 1553.15 1531.54 Z" fill="#000000" fill-rule="evenodd" fill-opacity="1" /><path clip-path="url(#clip240)" d="M 0 0 M1599.88 1537.87 Q1598.89 1537.3 1597.71 1537.04 Q1596.57 1536.76 1595.17 1536.76 Q1590.2 1536.76 1587.53 1540 Q1584.88 1543.22 1584.88 1549.27 L1584.88 1568.04 L1579 1568.04 L1579 1532.4 L1584.88 1532.4 L1584.88 1537.93 Q1586.73 1534.69 1589.69 1533.13 Q1592.65 1531.54 1596.88 1531.54 Q1597.49 1531.54 1598.22 1531.63 Q1598.95 1531.7 1599.84 1531.85 L1599.88 1537.87 Z" fill="#000000" fill-rule="evenodd" fill-opacity="1" /><path clip-path="url(#clip240)" d="M 0 0 M1628.74 1533.45 L1628.74 1538.98 Q1626.26 1537.71 1623.59 1537.07 Q1620.91 1536.44 1618.05 1536.44 Q1613.69 1536.44 1611.49 1537.77 Q1609.33 1539.11 1609.33 1541.79 Q1609.33 1543.82 1610.89 1545 Q1612.45 1546.15 1617.16 1547.2 L1619.16 1547.64 Q1625.4 1548.98 1628.01 1551.43 Q1630.65 1553.85 1630.65 1558.21 Q1630.65 1563.17 1626.71 1566.07 Q1622.79 1568.97 1615.92 1568.97 Q1613.05 1568.97 1609.93 1568.39 Q1606.85 1567.85 1603.41 1566.74 L1603.41 1560.69 Q1606.66 1562.38 1609.81 1563.24 Q1612.96 1564.07 1616.04 1564.07 Q1620.18 1564.07 1622.41 1562.66 Q1624.64 1561.23 1624.64 1558.65 Q1624.64 1556.27 1623.02 1554.99 Q1621.42 1553.72 1615.98 1552.54 L1613.94 1552.07 Q1608.5 1550.92 1606.08 1548.56 Q1603.66 1546.18 1603.66 1542.04 Q1603.66 1537.01 1607.23 1534.27 Q1610.79 1531.54 1617.35 1531.54 Q1620.6 1531.54 1623.46 1532.01 Q1626.33 1532.49 1628.74 1533.45 Z" fill="#000000" fill-rule="evenodd" fill-opacity="1" /><polyline clip-path="url(#clip242)" style="stroke:#000000; stroke-width:2; stroke-opacity:0.1; fill:none" points="
  249.542,1220.1 2352.76,1220.1 
  "/>
<polyline clip-path="url(#clip242)" style="stroke:#000000; stroke-width:2; stroke-opacity:0.1; fill:none" points="
  249.542,900.312 2352.76,900.312 
  "/>
<polyline clip-path="url(#clip242)" style="stroke:#000000; stroke-width:2; stroke-opacity:0.1; fill:none" points="
  249.542,580.521 2352.76,580.521 
  "/>
<polyline clip-path="url(#clip242)" style="stroke:#000000; stroke-width:2; stroke-opacity:0.1; fill:none" points="
  249.542,260.729 2352.76,260.729 
  "/>
<polyline clip-path="url(#clip240)" style="stroke:#000000; stroke-width:4; stroke-opacity:1; fill:none" points="
  249.542,1423.18 249.542,123.472 
  "/>
<polyline clip-path="url(#clip240)" style="stroke:#000000; stroke-width:4; stroke-opacity:1; fill:none" points="
  249.542,1220.1 274.781,1220.1 
  "/>
<polyline clip-path="url(#clip240)" style="stroke:#000000; stroke-width:4; stroke-opacity:1; fill:none" points="
  249.542,900.312 274.781,900.312 
  "/>
<polyline clip-path="url(#clip240)" style="stroke:#000000; stroke-width:4; stroke-opacity:1; fill:none" points="
  249.542,580.521 274.781,580.521 
  "/>
<polyline clip-path="url(#clip240)" style="stroke:#000000; stroke-width:4; stroke-opacity:1; fill:none" points="
  249.542,260.729 274.781,260.729 
  "/>
<path clip-path="url(#clip240)" d="M 0 0 M127.2 1205.9 Q123.589 1205.9 121.76 1209.47 Q119.955 1213.01 119.955 1220.14 Q119.955 1227.25 121.76 1230.81 Q123.589 1234.35 127.2 1234.35 Q130.834 1234.35 132.64 1230.81 Q134.468 1227.25 134.468 1220.14 Q134.468 1213.01 132.64 1209.47 Q130.834 1205.9 127.2 1205.9 M127.2 1202.2 Q133.01 1202.2 136.066 1206.81 Q139.144 1211.39 139.144 1220.14 Q139.144 1228.87 136.066 1233.47 Q133.01 1238.06 127.2 1238.06 Q121.39 1238.06 118.311 1233.47 Q115.256 1228.87 115.256 1220.14 Q115.256 1211.39 118.311 1206.81 Q121.39 1202.2 127.2 1202.2 Z" fill="#000000" fill-rule="evenodd" fill-opacity="1" /><path clip-path="url(#clip240)" d="M 0 0 M147.362 1231.5 L152.246 1231.5 L152.246 1237.38 L147.362 1237.38 L147.362 1231.5 Z" fill="#000000" fill-rule="evenodd" fill-opacity="1" /><path clip-path="url(#clip240)" d="M 0 0 M175.278 1206.9 L163.473 1225.35 L175.278 1225.35 L175.278 1206.9 M174.052 1202.82 L179.931 1202.82 L179.931 1225.35 L184.862 1225.35 L184.862 1229.24 L179.931 1229.24 L179.931 1237.38 L175.278 1237.38 L175.278 1229.24 L159.677 1229.24 L159.677 1224.72 L174.052 1202.82 Z" fill="#000000" fill-rule="evenodd" fill-opacity="1" /><path clip-path="url(#clip240)" d="M 0 0 M192.639 1202.82 L210.996 1202.82 L210.996 1206.76 L196.922 1206.76 L196.922 1215.23 Q197.94 1214.88 198.959 1214.72 Q199.977 1214.54 200.996 1214.54 Q206.783 1214.54 210.162 1217.71 Q213.542 1220.88 213.542 1226.3 Q213.542 1231.87 210.07 1234.98 Q206.598 1238.06 200.278 1238.06 Q198.102 1238.06 195.834 1237.68 Q193.588 1237.31 191.181 1236.57 L191.181 1231.87 Q193.264 1233.01 195.487 1233.56 Q197.709 1234.12 200.186 1234.12 Q204.19 1234.12 206.528 1232.01 Q208.866 1229.91 208.866 1226.3 Q208.866 1222.69 206.528 1220.58 Q204.19 1218.47 200.186 1218.47 Q198.311 1218.47 196.436 1218.89 Q194.584 1219.31 192.639 1220.19 L192.639 1202.82 Z" fill="#000000" fill-rule="evenodd" fill-opacity="1" /><path clip-path="url(#clip240)" d="M 0 0 M126.205 886.111 Q122.593 886.111 120.765 889.676 Q118.959 893.217 118.959 900.347 Q118.959 907.454 120.765 911.018 Q122.593 914.56 126.205 914.56 Q129.839 914.56 131.644 911.018 Q133.473 907.454 133.473 900.347 Q133.473 893.217 131.644 889.676 Q129.839 886.111 126.205 886.111 M126.205 882.407 Q132.015 882.407 135.07 887.014 Q138.149 891.597 138.149 900.347 Q138.149 909.074 135.07 913.68 Q132.015 918.264 126.205 918.264 Q120.394 918.264 117.316 913.68 Q114.26 909.074 114.26 900.347 Q114.26 891.597 117.316 887.014 Q120.394 882.407 126.205 882.407 Z" fill="#000000" fill-rule="evenodd" fill-opacity="1" /><path clip-path="url(#clip240)" d="M 0 0 M146.366 911.713 L151.251 911.713 L151.251 917.592 L146.366 917.592 L146.366 911.713 Z" fill="#000000" fill-rule="evenodd" fill-opacity="1" /><path clip-path="url(#clip240)" d="M 0 0 M161.482 883.032 L179.839 883.032 L179.839 886.968 L165.765 886.968 L165.765 895.44 Q166.783 895.092 167.802 894.93 Q168.82 894.745 169.839 894.745 Q175.626 894.745 179.005 897.917 Q182.385 901.088 182.385 906.504 Q182.385 912.083 178.913 915.185 Q175.44 918.264 169.121 918.264 Q166.945 918.264 164.677 917.893 Q162.431 917.523 160.024 916.782 L160.024 912.083 Q162.107 913.217 164.329 913.773 Q166.552 914.328 169.028 914.328 Q173.033 914.328 175.371 912.222 Q177.709 910.116 177.709 906.504 Q177.709 902.893 175.371 900.787 Q173.033 898.68 169.028 898.68 Q167.153 898.68 165.278 899.097 Q163.427 899.514 161.482 900.393 L161.482 883.032 Z" fill="#000000" fill-rule="evenodd" fill-opacity="1" /><path clip-path="url(#clip240)" d="M 0 0 M201.598 886.111 Q197.987 886.111 196.158 889.676 Q194.352 893.217 194.352 900.347 Q194.352 907.454 196.158 911.018 Q197.987 914.56 201.598 914.56 Q205.232 914.56 207.037 911.018 Q208.866 907.454 208.866 900.347 Q208.866 893.217 207.037 889.676 Q205.232 886.111 201.598 886.111 M201.598 882.407 Q207.408 882.407 210.463 887.014 Q213.542 891.597 213.542 900.347 Q213.542 909.074 210.463 913.68 Q207.408 918.264 201.598 918.264 Q195.787 918.264 192.709 913.68 Q189.653 909.074 189.653 900.347 Q189.653 891.597 192.709 887.014 Q195.787 882.407 201.598 882.407 Z" fill="#000000" fill-rule="evenodd" fill-opacity="1" /><path clip-path="url(#clip240)" d="M 0 0 M127.2 566.319 Q123.589 566.319 121.76 569.884 Q119.955 573.426 119.955 580.555 Q119.955 587.662 121.76 591.227 Q123.589 594.768 127.2 594.768 Q130.834 594.768 132.64 591.227 Q134.468 587.662 134.468 580.555 Q134.468 573.426 132.64 569.884 Q130.834 566.319 127.2 566.319 M127.2 562.616 Q133.01 562.616 136.066 567.222 Q139.144 571.805 139.144 580.555 Q139.144 589.282 136.066 593.889 Q133.01 598.472 127.2 598.472 Q121.39 598.472 118.311 593.889 Q115.256 589.282 115.256 580.555 Q115.256 571.805 118.311 567.222 Q121.39 562.616 127.2 562.616 Z" fill="#000000" fill-rule="evenodd" fill-opacity="1" /><path clip-path="url(#clip240)" d="M 0 0 M147.362 591.921 L152.246 591.921 L152.246 597.801 L147.362 597.801 L147.362 591.921 Z" fill="#000000" fill-rule="evenodd" fill-opacity="1" /><path clip-path="url(#clip240)" d="M 0 0 M162.477 563.241 L180.834 563.241 L180.834 567.176 L166.76 567.176 L166.76 575.648 Q167.778 575.301 168.797 575.139 Q169.815 574.954 170.834 574.954 Q176.621 574.954 180.001 578.125 Q183.38 581.296 183.38 586.713 Q183.38 592.291 179.908 595.393 Q176.436 598.472 170.116 598.472 Q167.94 598.472 165.672 598.102 Q163.427 597.731 161.019 596.991 L161.019 592.291 Q163.102 593.426 165.325 593.981 Q167.547 594.537 170.024 594.537 Q174.028 594.537 176.366 592.43 Q178.704 590.324 178.704 586.713 Q178.704 583.102 176.366 580.995 Q174.028 578.889 170.024 578.889 Q168.149 578.889 166.274 579.305 Q164.422 579.722 162.477 580.602 L162.477 563.241 Z" fill="#000000" fill-rule="evenodd" fill-opacity="1" /><path clip-path="url(#clip240)" d="M 0 0 M192.639 563.241 L210.996 563.241 L210.996 567.176 L196.922 567.176 L196.922 575.648 Q197.94 575.301 198.959 575.139 Q199.977 574.954 200.996 574.954 Q206.783 574.954 210.162 578.125 Q213.542 581.296 213.542 586.713 Q213.542 592.291 210.07 595.393 Q206.598 598.472 200.278 598.472 Q198.102 598.472 195.834 598.102 Q193.588 597.731 191.181 596.991 L191.181 592.291 Q193.264 593.426 195.487 593.981 Q197.709 594.537 200.186 594.537 Q204.19 594.537 206.528 592.43 Q208.866 590.324 208.866 586.713 Q208.866 583.102 206.528 580.995 Q204.19 578.889 200.186 578.889 Q198.311 578.889 196.436 579.305 Q194.584 579.722 192.639 580.602 L192.639 563.241 Z" fill="#000000" fill-rule="evenodd" fill-opacity="1" /><path clip-path="url(#clip240)" d="M 0 0 M126.205 246.528 Q122.593 246.528 120.765 250.093 Q118.959 253.634 118.959 260.764 Q118.959 267.87 120.765 271.435 Q122.593 274.977 126.205 274.977 Q129.839 274.977 131.644 271.435 Q133.473 267.87 133.473 260.764 Q133.473 253.634 131.644 250.093 Q129.839 246.528 126.205 246.528 M126.205 242.824 Q132.015 242.824 135.07 247.43 Q138.149 252.014 138.149 260.764 Q138.149 269.491 135.07 274.097 Q132.015 278.68 126.205 278.68 Q120.394 278.68 117.316 274.097 Q114.26 269.491 114.26 260.764 Q114.26 252.014 117.316 247.43 Q120.394 242.824 126.205 242.824 Z" fill="#000000" fill-rule="evenodd" fill-opacity="1" /><path clip-path="url(#clip240)" d="M 0 0 M146.366 272.129 L151.251 272.129 L151.251 278.009 L146.366 278.009 L146.366 272.129 Z" fill="#000000" fill-rule="evenodd" fill-opacity="1" /><path clip-path="url(#clip240)" d="M 0 0 M172.014 258.866 Q168.866 258.866 167.015 261.018 Q165.186 263.171 165.186 266.921 Q165.186 270.648 167.015 272.824 Q168.866 274.977 172.014 274.977 Q175.163 274.977 176.991 272.824 Q178.843 270.648 178.843 266.921 Q178.843 263.171 176.991 261.018 Q175.163 258.866 172.014 258.866 M181.297 244.213 L181.297 248.472 Q179.538 247.639 177.732 247.199 Q175.95 246.759 174.19 246.759 Q169.561 246.759 167.107 249.884 Q164.677 253.009 164.329 259.329 Q165.695 257.315 167.755 256.25 Q169.815 255.162 172.292 255.162 Q177.501 255.162 180.51 258.333 Q183.542 261.481 183.542 266.921 Q183.542 272.245 180.394 275.463 Q177.246 278.68 172.014 278.68 Q166.019 278.68 162.848 274.097 Q159.677 269.491 159.677 260.764 Q159.677 252.569 163.565 247.708 Q167.454 242.824 174.005 242.824 Q175.764 242.824 177.547 243.171 Q179.352 243.518 181.297 244.213 Z" fill="#000000" fill-rule="evenodd" fill-opacity="1" /><path clip-path="url(#clip240)" d="M 0 0 M201.598 246.528 Q197.987 246.528 196.158 250.093 Q194.352 253.634 194.352 260.764 Q194.352 267.87 196.158 271.435 Q197.987 274.977 201.598 274.977 Q205.232 274.977 207.037 271.435 Q208.866 267.87 208.866 260.764 Q208.866 253.634 207.037 250.093 Q205.232 246.528 201.598 246.528 M201.598 242.824 Q207.408 242.824 210.463 247.43 Q213.542 252.014 213.542 260.764 Q213.542 269.491 210.463 274.097 Q207.408 278.68 201.598 278.68 Q195.787 278.68 192.709 274.097 Q189.653 269.491 189.653 260.764 Q189.653 252.014 192.709 247.43 Q195.787 242.824 201.598 242.824 Z" fill="#000000" fill-rule="evenodd" fill-opacity="1" /><path clip-path="url(#clip240)" d="M 0 0 M43.0928 965.141 Q43.0928 967.91 45.4481 969.501 Q47.8034 971.061 52.0048 971.061 Q56.1425 971.061 58.5296 969.501 Q60.885 967.91 60.885 965.141 Q60.885 962.435 58.5296 960.876 Q56.1425 959.284 52.0048 959.284 Q47.8353 959.284 45.48 960.876 Q43.0928 962.435 43.0928 965.141 M39.0506 965.141 Q39.0506 960.112 42.5517 957.152 Q46.0529 954.192 52.0048 954.192 Q57.9567 954.192 61.4579 957.184 Q64.9272 960.144 64.9272 965.141 Q64.9272 970.233 61.4579 973.193 Q57.9567 976.153 52.0048 976.153 Q46.021 976.153 42.5517 973.193 Q39.0506 970.201 39.0506 965.141 M19.667 997.988 Q19.667 1000.72 22.0542 1002.32 Q24.4095 1003.88 28.5472 1003.88 Q32.7485 1003.88 35.1038 1002.32 Q37.4592 1000.76 37.4592 997.988 Q37.4592 995.219 35.1038 993.659 Q32.7485 992.068 28.5472 992.068 Q24.4413 992.068 22.0542 993.659 Q19.667 995.25 19.667 997.988 M15.6248 969.247 L15.6248 964.154 L64.9272 993.882 L64.9272 998.974 L15.6248 969.247 M15.6248 997.988 Q15.6248 992.959 19.1259 989.967 Q22.5952 986.975 28.5472 986.975 Q34.5628 986.975 38.0321 989.967 Q41.5014 992.927 41.5014 997.988 Q41.5014 1003.05 38.0321 1006.01 Q34.5309 1008.94 28.5472 1008.94 Q22.6271 1008.94 19.1259 1005.98 Q15.6248 1003.02 15.6248 997.988 Z" fill="#000000" fill-rule="evenodd" fill-opacity="1" /><path clip-path="url(#clip240)" d="M 0 0 M20.1444 887.893 L26.9239 887.893 Q23.9002 891.139 22.4043 894.831 Q20.9083 898.492 20.9083 902.629 Q20.9083 910.778 25.9054 915.106 Q30.8707 919.435 40.2919 919.435 Q49.6813 919.435 54.6784 915.106 Q59.6436 910.778 59.6436 902.629 Q59.6436 898.492 58.1477 894.831 Q56.6518 891.139 53.6281 887.893 L60.3439 887.893 Q62.6355 891.267 63.7814 895.054 Q64.9272 898.81 64.9272 903.011 Q64.9272 913.801 58.3387 920.008 Q51.7183 926.214 40.2919 926.214 Q28.8336 926.214 22.2451 920.008 Q15.6248 913.801 15.6248 903.011 Q15.6248 898.746 16.7706 894.991 Q17.8846 891.203 20.1444 887.893 Z" fill="#000000" fill-rule="evenodd" fill-opacity="1" /><path clip-path="url(#clip240)" d="M 0 0 M32.4621 864.403 Q32.4621 869.114 36.1542 871.851 Q39.8145 874.588 46.212 874.588 Q52.6095 874.588 56.3017 871.883 Q59.9619 869.146 59.9619 864.403 Q59.9619 859.725 56.2698 856.987 Q52.5777 854.25 46.212 854.25 Q39.8781 854.25 36.186 856.987 Q32.4621 859.725 32.4621 864.403 M27.4968 864.403 Q27.4968 856.764 32.4621 852.404 Q37.4273 848.043 46.212 848.043 Q54.9649 848.043 59.9619 852.404 Q64.9272 856.764 64.9272 864.403 Q64.9272 872.074 59.9619 876.435 Q54.9649 880.763 46.212 880.763 Q37.4273 880.763 32.4621 876.435 Q27.4968 872.074 27.4968 864.403 Z" fill="#000000" fill-rule="evenodd" fill-opacity="1" /><path clip-path="url(#clip240)" d="M 0 0 M42.4881 808.703 L64.0042 808.703 L64.0042 814.56 L42.679 814.56 Q37.6183 814.56 35.1038 816.533 Q32.5894 818.507 32.5894 822.453 Q32.5894 827.196 35.6131 829.933 Q38.6368 832.67 43.8567 832.67 L64.0042 832.67 L64.0042 838.559 L28.3562 838.559 L28.3562 832.67 L33.8944 832.67 Q30.6797 830.57 29.0883 827.737 Q27.4968 824.872 27.4968 821.148 Q27.4968 815.005 31.3163 811.854 Q35.1038 808.703 42.4881 808.703 Z" fill="#000000" fill-rule="evenodd" fill-opacity="1" /><path clip-path="url(#clip240)" d="M 0 0 M33.7671 773.565 L14.479 773.565 L14.479 767.708 L64.0042 767.708 L64.0042 773.565 L58.657 773.565 Q61.8398 775.411 63.3994 778.243 Q64.9272 781.044 64.9272 784.991 Q64.9272 791.452 59.771 795.526 Q54.6147 799.569 46.212 799.569 Q37.8093 799.569 32.6531 795.526 Q27.4968 791.452 27.4968 784.991 Q27.4968 781.044 29.0564 778.243 Q30.5842 775.411 33.7671 773.565 M46.212 793.521 Q52.6732 793.521 56.3653 790.879 Q60.0256 788.206 60.0256 783.559 Q60.0256 778.912 56.3653 776.238 Q52.6732 773.565 46.212 773.565 Q39.7508 773.565 36.0905 776.238 Q32.3984 778.912 32.3984 783.559 Q32.3984 788.206 36.0905 790.879 Q39.7508 793.521 46.212 793.521 Z" fill="#000000" fill-rule="evenodd" fill-opacity="1" /><path clip-path="url(#clip240)" d="M 0 0 M49.9359 756.25 L28.3562 756.25 L28.3562 750.394 L49.7131 750.394 Q54.7739 750.394 57.3202 748.42 Q59.8346 746.447 59.8346 742.5 Q59.8346 737.758 56.8109 735.02 Q53.7872 732.251 48.5673 732.251 L28.3562 732.251 L28.3562 726.395 L64.0042 726.395 L64.0042 732.251 L58.5296 732.251 Q61.7762 734.384 63.3676 737.217 Q64.9272 740.017 64.9272 743.741 Q64.9272 749.884 61.1078 753.067 Q57.2883 756.25 49.9359 756.25 M27.4968 741.513 L27.4968 741.513 Z" fill="#000000" fill-rule="evenodd" fill-opacity="1" /><path clip-path="url(#clip240)" d="M 0 0 M29.7248 688.678 L35.1993 688.678 Q33.8307 691.161 33.1623 693.675 Q32.4621 696.158 32.4621 698.704 Q32.4621 704.401 36.0905 707.552 Q39.6872 710.703 46.212 710.703 Q52.7369 710.703 56.3653 707.552 Q59.9619 704.401 59.9619 698.704 Q59.9619 696.158 59.2935 693.675 Q58.5933 691.161 57.2247 688.678 L62.6355 688.678 Q63.7814 691.129 64.3543 693.771 Q64.9272 696.381 64.9272 699.341 Q64.9272 707.393 59.8664 712.136 Q54.8057 716.878 46.212 716.878 Q37.491 716.878 32.4939 712.104 Q27.4968 707.298 27.4968 698.959 Q27.4968 696.253 28.0697 693.675 Q28.6108 691.097 29.7248 688.678 Z" fill="#000000" fill-rule="evenodd" fill-opacity="1" /><path clip-path="url(#clip240)" d="M 0 0 M18.2347 672.7 L28.3562 672.7 L28.3562 660.637 L32.9077 660.637 L32.9077 672.7 L52.2594 672.7 Q56.6199 672.7 57.8613 671.522 Q59.1026 670.313 59.1026 666.653 L59.1026 660.637 L64.0042 660.637 L64.0042 666.653 Q64.0042 673.432 61.4897 676.01 Q58.9434 678.588 52.2594 678.588 L32.9077 678.588 L32.9077 682.885 L28.3562 682.885 L28.3562 678.588 L18.2347 678.588 L18.2347 672.7 Z" fill="#000000" fill-rule="evenodd" fill-opacity="1" /><path clip-path="url(#clip240)" d="M 0 0 M32.4621 639.121 Q32.4621 643.832 36.1542 646.569 Q39.8145 649.306 46.212 649.306 Q52.6095 649.306 56.3017 646.601 Q59.9619 643.863 59.9619 639.121 Q59.9619 634.442 56.2698 631.705 Q52.5777 628.968 46.212 628.968 Q39.8781 628.968 36.186 631.705 Q32.4621 634.442 32.4621 639.121 M27.4968 639.121 Q27.4968 631.482 32.4621 627.122 Q37.4273 622.761 46.212 622.761 Q54.9649 622.761 59.9619 627.122 Q64.9272 631.482 64.9272 639.121 Q64.9272 646.792 59.9619 651.152 Q54.9649 655.481 46.212 655.481 Q37.4273 655.481 32.4621 651.152 Q27.4968 646.792 27.4968 639.121 Z" fill="#000000" fill-rule="evenodd" fill-opacity="1" /><path clip-path="url(#clip240)" d="M 0 0 M33.8307 592.397 Q33.2578 593.383 33.0032 594.561 Q32.7167 595.707 32.7167 597.107 Q32.7167 602.073 35.9632 604.746 Q39.1779 607.388 45.2253 607.388 L64.0042 607.388 L64.0042 613.276 L28.3562 613.276 L28.3562 607.388 L33.8944 607.388 Q30.6479 605.542 29.0883 602.582 Q27.4968 599.622 27.4968 595.389 Q27.4968 594.784 27.5923 594.052 Q27.656 593.32 27.8151 592.429 L33.8307 592.397 Z" fill="#000000" fill-rule="evenodd" fill-opacity="1" /><path clip-path="url(#clip240)" d="M 0 0 M29.4065 563.528 L34.9447 563.528 Q33.6716 566.011 33.035 568.684 Q32.3984 571.358 32.3984 574.223 Q32.3984 578.583 33.7352 580.779 Q35.072 582.944 37.7456 582.944 Q39.7826 582.944 40.9603 581.384 Q42.1061 579.824 43.1565 575.114 L43.6021 573.109 Q44.9389 566.87 47.3897 564.26 Q49.8086 561.618 54.1691 561.618 Q59.1344 561.618 62.0308 565.565 Q64.9272 569.48 64.9272 576.355 Q64.9272 579.22 64.3543 582.339 Q63.8132 585.426 62.6992 588.864 L56.6518 588.864 Q58.3387 585.617 59.198 582.466 Q60.0256 579.315 60.0256 576.228 Q60.0256 572.09 58.6251 569.862 Q57.1929 567.634 54.6147 567.634 Q52.2276 567.634 50.9545 569.257 Q49.6813 570.849 48.5037 576.291 L48.0262 578.328 Q46.8804 583.771 44.5251 586.19 Q42.138 588.609 38.0002 588.609 Q32.9713 588.609 30.2341 585.044 Q27.4968 581.48 27.4968 574.923 Q27.4968 571.676 27.9743 568.812 Q28.4517 565.947 29.4065 563.528 Z" fill="#000000" fill-rule="evenodd" fill-opacity="1" /><path clip-path="url(#clip240)" d="M 0 0 M488.578 45.9616 Q485.054 45.9616 483.028 48.9592 Q481.043 51.9569 481.043 57.3041 Q481.043 62.5703 483.028 65.6084 Q485.054 68.6061 488.578 68.6061 Q492.021 68.6061 494.006 65.6084 Q496.032 62.5703 496.032 57.3041 Q496.032 51.9974 494.006 48.9997 Q492.021 45.9616 488.578 45.9616 M488.578 40.8169 Q494.979 40.8169 498.746 45.2729 Q502.513 49.7289 502.513 57.3041 Q502.513 64.8793 498.705 69.3353 Q494.938 73.7508 488.578 73.7508 Q482.097 73.7508 478.329 69.3353 Q474.562 64.8793 474.562 57.3041 Q474.562 49.6884 478.329 45.2729 Q482.137 40.8169 488.578 40.8169 M446.773 16.1469 Q443.289 16.1469 441.264 19.1851 Q439.279 22.1828 439.279 27.4489 Q439.279 32.7961 441.264 35.7938 Q443.248 38.7915 446.773 38.7915 Q450.297 38.7915 452.282 35.7938 Q454.307 32.7961 454.307 27.4489 Q454.307 22.2233 452.282 19.1851 Q450.257 16.1469 446.773 16.1469 M483.352 11.0023 L489.834 11.0023 L451.998 73.7508 L445.517 73.7508 L483.352 11.0023 M446.773 11.0023 Q453.173 11.0023 456.981 15.4583 Q460.789 19.8737 460.789 27.4489 Q460.789 35.1051 456.981 39.5206 Q453.214 43.9361 446.773 43.9361 Q440.332 43.9361 436.564 39.5206 Q432.838 35.0646 432.838 27.4489 Q432.838 19.9142 436.605 15.4583 Q440.372 11.0023 446.773 11.0023 Z" fill="#000000" fill-rule="evenodd" fill-opacity="1" /><path clip-path="url(#clip240)" d="M 0 0 M586.894 16.7545 L586.894 25.383 Q582.762 21.5346 578.063 19.6307 Q573.404 17.7268 568.138 17.7268 Q557.768 17.7268 552.258 24.0867 Q546.749 30.4061 546.749 42.3968 Q546.749 54.3469 552.258 60.7069 Q557.768 67.0263 568.138 67.0263 Q573.404 67.0263 578.063 65.1223 Q582.762 63.2184 586.894 59.3701 L586.894 67.9175 Q582.6 70.8341 577.779 72.2924 Q572.999 73.7508 567.652 73.7508 Q553.919 73.7508 546.02 65.3654 Q538.121 56.9395 538.121 42.3968 Q538.121 27.8135 546.02 19.4281 Q553.919 11.0023 567.652 11.0023 Q573.08 11.0023 577.86 12.4606 Q582.681 13.8784 586.894 16.7545 Z" fill="#000000" fill-rule="evenodd" fill-opacity="1" /><path clip-path="url(#clip240)" d="M 0 0 M616.789 32.4315 Q610.794 32.4315 607.31 37.1306 Q603.826 41.7891 603.826 49.9314 Q603.826 58.0738 607.27 62.7728 Q610.753 67.4314 616.789 67.4314 Q622.744 67.4314 626.228 62.7323 Q629.712 58.0333 629.712 49.9314 Q629.712 41.8701 626.228 37.1711 Q622.744 32.4315 616.789 32.4315 M616.789 26.1121 Q626.511 26.1121 632.061 32.4315 Q637.611 38.7509 637.611 49.9314 Q637.611 61.0714 632.061 67.4314 Q626.511 73.7508 616.789 73.7508 Q607.027 73.7508 601.477 67.4314 Q595.968 61.0714 595.968 49.9314 Q595.968 38.7509 601.477 32.4315 Q607.027 26.1121 616.789 26.1121 Z" fill="#000000" fill-rule="evenodd" fill-opacity="1" /><path clip-path="url(#clip240)" d="M 0 0 M687.68 45.1919 L687.68 72.576 L680.226 72.576 L680.226 45.4349 Q680.226 38.994 677.715 35.7938 Q675.203 32.5936 670.18 32.5936 Q664.144 32.5936 660.661 36.4419 Q657.177 40.2903 657.177 46.9338 L657.177 72.576 L649.683 72.576 L649.683 27.2059 L657.177 27.2059 L657.177 34.2544 Q659.85 30.163 663.456 28.1376 Q667.101 26.1121 671.841 26.1121 Q679.659 26.1121 683.67 30.9732 Q687.68 35.7938 687.68 45.1919 Z" fill="#000000" fill-rule="evenodd" fill-opacity="1" /><path clip-path="url(#clip240)" d="M 0 0 M732.402 34.0924 L732.402 9.54393 L739.856 9.54393 L739.856 72.576 L732.402 72.576 L732.402 65.7705 Q730.052 69.8214 726.447 71.8063 Q722.882 73.7508 717.859 73.7508 Q709.636 73.7508 704.451 67.1883 Q699.306 60.6258 699.306 49.9314 Q699.306 39.2371 704.451 32.6746 Q709.636 26.1121 717.859 26.1121 Q722.882 26.1121 726.447 28.0971 Q730.052 30.0415 732.402 34.0924 M707.003 49.9314 Q707.003 58.1548 710.365 62.8538 Q713.768 67.5124 719.682 67.5124 Q725.596 67.5124 728.999 62.8538 Q732.402 58.1548 732.402 49.9314 Q732.402 41.7081 728.999 37.0496 Q725.596 32.3505 719.682 32.3505 Q713.768 32.3505 710.365 37.0496 Q707.003 41.7081 707.003 49.9314 Z" fill="#000000" fill-rule="evenodd" fill-opacity="1" /><path clip-path="url(#clip240)" d="M 0 0 M754.439 54.671 L754.439 27.2059 L761.893 27.2059 L761.893 54.3874 Q761.893 60.8284 764.404 64.0691 Q766.916 67.2693 771.939 67.2693 Q777.975 67.2693 781.458 63.421 Q784.983 59.5726 784.983 52.9291 L784.983 27.2059 L792.436 27.2059 L792.436 72.576 L784.983 72.576 L784.983 65.6084 Q782.269 69.7404 778.663 71.7658 Q775.099 73.7508 770.359 73.7508 Q762.541 73.7508 758.49 68.8897 Q754.439 64.0286 754.439 54.671 M773.195 26.1121 L773.195 26.1121 Z" fill="#000000" fill-rule="evenodd" fill-opacity="1" /><path clip-path="url(#clip240)" d="M 0 0 M840.44 28.9478 L840.44 35.9153 Q837.28 34.1734 834.08 33.3227 Q830.92 32.4315 827.679 32.4315 Q820.428 32.4315 816.418 37.0496 Q812.407 41.6271 812.407 49.9314 Q812.407 58.2358 816.418 62.8538 Q820.428 67.4314 827.679 67.4314 Q830.92 67.4314 834.08 66.5807 Q837.28 65.6895 840.44 63.9476 L840.44 70.8341 Q837.32 72.2924 833.958 73.0216 Q830.636 73.7508 826.869 73.7508 Q816.62 73.7508 810.584 67.3098 Q804.549 60.8689 804.549 49.9314 Q804.549 38.832 810.625 32.472 Q816.742 26.1121 827.355 26.1121 Q830.798 26.1121 834.08 26.8413 Q837.361 27.5299 840.44 28.9478 Z" fill="#000000" fill-rule="evenodd" fill-opacity="1" /><path clip-path="url(#clip240)" d="M 0 0 M860.775 14.324 L860.775 27.2059 L876.128 27.2059 L876.128 32.9987 L860.775 32.9987 L860.775 57.6282 Q860.775 63.1779 862.274 64.7578 Q863.813 66.3376 868.472 66.3376 L876.128 66.3376 L876.128 72.576 L868.472 72.576 Q859.843 72.576 856.562 69.3758 Q853.281 66.1351 853.281 57.6282 L853.281 32.9987 L847.812 32.9987 L847.812 27.2059 L853.281 27.2059 L853.281 14.324 L860.775 14.324 Z" fill="#000000" fill-rule="evenodd" fill-opacity="1" /><path clip-path="url(#clip240)" d="M 0 0 M903.512 32.4315 Q897.517 32.4315 894.033 37.1306 Q890.549 41.7891 890.549 49.9314 Q890.549 58.0738 893.993 62.7728 Q897.476 67.4314 903.512 67.4314 Q909.467 67.4314 912.951 62.7323 Q916.435 58.0333 916.435 49.9314 Q916.435 41.8701 912.951 37.1711 Q909.467 32.4315 903.512 32.4315 M903.512 26.1121 Q913.234 26.1121 918.784 32.4315 Q924.334 38.7509 924.334 49.9314 Q924.334 61.0714 918.784 67.4314 Q913.234 73.7508 903.512 73.7508 Q893.75 73.7508 888.2 67.4314 Q882.691 61.0714 882.691 49.9314 Q882.691 38.7509 888.2 32.4315 Q893.75 26.1121 903.512 26.1121 Z" fill="#000000" fill-rule="evenodd" fill-opacity="1" /><path clip-path="url(#clip240)" d="M 0 0 M962.979 34.1734 Q961.724 33.4443 960.225 33.1202 Q958.767 32.7556 956.984 32.7556 Q950.665 32.7556 947.262 36.8875 Q943.9 40.9789 943.9 48.6757 L943.9 72.576 L936.406 72.576 L936.406 27.2059 L943.9 27.2059 L943.9 34.2544 Q946.249 30.1225 950.017 28.1376 Q953.784 26.1121 959.172 26.1121 Q959.941 26.1121 960.873 26.2337 Q961.805 26.3147 962.939 26.5172 L962.979 34.1734 Z" fill="#000000" fill-rule="evenodd" fill-opacity="1" /><path clip-path="url(#clip240)" d="M 0 0 M999.721 28.5427 L999.721 35.5912 Q996.561 33.9709 993.159 33.1607 Q989.756 32.3505 986.11 32.3505 Q980.56 32.3505 977.765 34.0519 Q975.011 35.7533 975.011 39.156 Q975.011 41.7486 976.996 43.2475 Q978.981 44.7058 984.976 46.0426 L987.528 46.6097 Q995.468 48.3111 998.789 51.4303 Q1002.15 54.509 1002.15 60.0587 Q1002.15 66.3781 997.129 70.0644 Q992.146 73.7508 983.396 73.7508 Q979.75 73.7508 975.78 73.0216 Q971.851 72.3329 967.476 70.9151 L967.476 63.2184 Q971.608 65.3654 975.618 66.4591 Q979.629 67.5124 983.558 67.5124 Q988.824 67.5124 991.66 65.73 Q994.496 63.9071 994.496 60.6258 Q994.496 57.5877 992.43 55.9673 Q990.404 54.3469 983.477 52.8481 L980.884 52.2405 Q973.957 50.7821 970.879 47.7845 Q967.8 44.7463 967.8 39.4801 Q967.8 33.0797 972.337 29.5959 Q976.874 26.1121 985.219 26.1121 Q989.351 26.1121 992.997 26.7198 Q996.642 27.3274 999.721 28.5427 Z" fill="#000000" fill-rule="evenodd" fill-opacity="1" /><path clip-path="url(#clip240)" d="M 0 0 M1066.68 34.1734 Q1065.43 33.4443 1063.93 33.1202 Q1062.47 32.7556 1060.69 32.7556 Q1054.37 32.7556 1050.97 36.8875 Q1047.6 40.9789 1047.6 48.6757 L1047.6 72.576 L1040.11 72.576 L1040.11 27.2059 L1047.6 27.2059 L1047.6 34.2544 Q1049.95 30.1225 1053.72 28.1376 Q1057.49 26.1121 1062.87 26.1121 Q1063.64 26.1121 1064.58 26.2337 Q1065.51 26.3147 1066.64 26.5172 L1066.68 34.1734 Z" fill="#000000" fill-rule="evenodd" fill-opacity="1" /><path clip-path="url(#clip240)" d="M 0 0 M1111.49 48.0275 L1111.49 51.6733 L1077.21 51.6733 Q1077.7 59.3701 1081.83 63.421 Q1086.01 67.4314 1093.42 67.4314 Q1097.71 67.4314 1101.72 66.3781 Q1105.77 65.3249 1109.74 63.2184 L1109.74 70.267 Q1105.73 71.9684 1101.52 72.8596 Q1097.31 73.7508 1092.97 73.7508 Q1082.12 73.7508 1075.76 67.4314 Q1069.44 61.1119 1069.44 50.3365 Q1069.44 39.1965 1075.43 32.6746 Q1081.47 26.1121 1091.68 26.1121 Q1100.83 26.1121 1106.14 32.0264 Q1111.49 37.9003 1111.49 48.0275 M1104.03 45.84 Q1103.95 39.7232 1100.59 36.0774 Q1097.27 32.4315 1091.76 32.4315 Q1085.52 32.4315 1081.75 35.9558 Q1078.03 39.4801 1077.46 45.8805 L1104.03 45.84 Z" fill="#000000" fill-rule="evenodd" fill-opacity="1" /><path clip-path="url(#clip240)" d="M 0 0 M1128.18 49.9314 Q1128.18 58.1548 1131.54 62.8538 Q1134.94 67.5124 1140.85 67.5124 Q1146.77 67.5124 1150.17 62.8538 Q1153.57 58.1548 1153.57 49.9314 Q1153.57 41.7081 1150.17 37.0496 Q1146.77 32.3505 1140.85 32.3505 Q1134.94 32.3505 1131.54 37.0496 Q1128.18 41.7081 1128.18 49.9314 M1153.57 65.7705 Q1151.23 69.8214 1147.62 71.8063 Q1144.05 73.7508 1139.03 73.7508 Q1130.81 73.7508 1125.62 67.1883 Q1120.48 60.6258 1120.48 49.9314 Q1120.48 39.2371 1125.62 32.6746 Q1130.81 26.1121 1139.03 26.1121 Q1144.05 26.1121 1147.62 28.0971 Q1151.23 30.0415 1153.57 34.0924 L1153.57 27.2059 L1161.03 27.2059 L1161.03 89.8329 L1153.57 89.8329 L1153.57 65.7705 Z" fill="#000000" fill-rule="evenodd" fill-opacity="1" /><path clip-path="url(#clip240)" d="M 0 0 M1175.61 54.671 L1175.61 27.2059 L1183.07 27.2059 L1183.07 54.3874 Q1183.07 60.8284 1185.58 64.0691 Q1188.09 67.2693 1193.11 67.2693 Q1199.15 67.2693 1202.63 63.421 Q1206.16 59.5726 1206.16 52.9291 L1206.16 27.2059 L1213.61 27.2059 L1213.61 72.576 L1206.16 72.576 L1206.16 65.6084 Q1203.44 69.7404 1199.84 71.7658 Q1196.27 73.7508 1191.53 73.7508 Q1183.71 73.7508 1179.66 68.8897 Q1175.61 64.0286 1175.61 54.671 M1194.37 26.1121 L1194.37 26.1121 Z" fill="#000000" fill-rule="evenodd" fill-opacity="1" /><path clip-path="url(#clip240)" d="M 0 0 M1228.96 27.2059 L1236.42 27.2059 L1236.42 72.576 L1228.96 72.576 L1228.96 27.2059 M1228.96 9.54393 L1236.42 9.54393 L1236.42 18.9825 L1228.96 18.9825 L1228.96 9.54393 Z" fill="#000000" fill-rule="evenodd" fill-opacity="1" /><path clip-path="url(#clip240)" d="M 0 0 M1278.3 34.1734 Q1277.05 33.4443 1275.55 33.1202 Q1274.09 32.7556 1272.31 32.7556 Q1265.99 32.7556 1262.58 36.8875 Q1259.22 40.9789 1259.22 48.6757 L1259.22 72.576 L1251.73 72.576 L1251.73 27.2059 L1259.22 27.2059 L1259.22 34.2544 Q1261.57 30.1225 1265.34 28.1376 Q1269.11 26.1121 1274.49 26.1121 Q1275.26 26.1121 1276.2 26.2337 Q1277.13 26.3147 1278.26 26.5172 L1278.3 34.1734 Z" fill="#000000" fill-rule="evenodd" fill-opacity="1" /><path clip-path="url(#clip240)" d="M 0 0 M1323.1 48.0275 L1323.1 51.6733 L1288.83 51.6733 Q1289.32 59.3701 1293.45 63.421 Q1297.62 67.4314 1305.04 67.4314 Q1309.33 67.4314 1313.34 66.3781 Q1317.39 65.3249 1321.36 63.2184 L1321.36 70.267 Q1317.35 71.9684 1313.14 72.8596 Q1308.93 73.7508 1304.59 73.7508 Q1293.74 73.7508 1287.38 67.4314 Q1281.06 61.1119 1281.06 50.3365 Q1281.06 39.1965 1287.05 32.6746 Q1293.09 26.1121 1303.3 26.1121 Q1312.45 26.1121 1317.76 32.0264 Q1323.1 37.9003 1323.1 48.0275 M1315.65 45.84 Q1315.57 39.7232 1312.21 36.0774 Q1308.89 32.4315 1303.38 32.4315 Q1297.14 32.4315 1293.37 35.9558 Q1289.64 39.4801 1289.08 45.8805 L1315.65 45.84 Z" fill="#000000" fill-rule="evenodd" fill-opacity="1" /><path clip-path="url(#clip240)" d="M 0 0 M1365.19 34.0924 L1365.19 9.54393 L1372.65 9.54393 L1372.65 72.576 L1365.19 72.576 L1365.19 65.7705 Q1362.84 69.8214 1359.24 71.8063 Q1355.67 73.7508 1350.65 73.7508 Q1342.43 73.7508 1337.24 67.1883 Q1332.1 60.6258 1332.1 49.9314 Q1332.1 39.2371 1337.24 32.6746 Q1342.43 26.1121 1350.65 26.1121 Q1355.67 26.1121 1359.24 28.0971 Q1362.84 30.0415 1365.19 34.0924 M1339.79 49.9314 Q1339.79 58.1548 1343.16 62.8538 Q1346.56 67.5124 1352.47 67.5124 Q1358.39 67.5124 1361.79 62.8538 Q1365.19 58.1548 1365.19 49.9314 Q1365.19 41.7081 1361.79 37.0496 Q1358.39 32.3505 1352.47 32.3505 Q1346.56 32.3505 1343.16 37.0496 Q1339.79 41.7081 1339.79 49.9314 Z" fill="#000000" fill-rule="evenodd" fill-opacity="1" /><path clip-path="url(#clip240)" d="M 0 0 M1437.34 9.54393 L1437.34 15.7418 L1430.21 15.7418 Q1426.2 15.7418 1424.62 17.3622 Q1423.08 18.9825 1423.08 23.1955 L1423.08 27.2059 L1435.36 27.2059 L1435.36 32.9987 L1423.08 32.9987 L1423.08 72.576 L1415.59 72.576 L1415.59 32.9987 L1408.46 32.9987 L1408.46 27.2059 L1415.59 27.2059 L1415.59 24.0462 Q1415.59 16.471 1419.11 13.0277 Q1422.64 9.54393 1430.29 9.54393 L1437.34 9.54393 Z" fill="#000000" fill-rule="evenodd" fill-opacity="1" /><path clip-path="url(#clip240)" d="M 0 0 M1461.16 32.4315 Q1455.16 32.4315 1451.68 37.1306 Q1448.2 41.7891 1448.2 49.9314 Q1448.2 58.0738 1451.64 62.7728 Q1455.12 67.4314 1461.16 67.4314 Q1467.11 67.4314 1470.6 62.7323 Q1474.08 58.0333 1474.08 49.9314 Q1474.08 41.8701 1470.6 37.1711 Q1467.11 32.4315 1461.16 32.4315 M1461.16 26.1121 Q1470.88 26.1121 1476.43 32.4315 Q1481.98 38.7509 1481.98 49.9314 Q1481.98 61.0714 1476.43 67.4314 Q1470.88 73.7508 1461.16 73.7508 Q1451.4 73.7508 1445.85 67.4314 Q1440.34 61.0714 1440.34 49.9314 Q1440.34 38.7509 1445.85 32.4315 Q1451.4 26.1121 1461.16 26.1121 Z" fill="#000000" fill-rule="evenodd" fill-opacity="1" /><path clip-path="url(#clip240)" d="M 0 0 M1520.63 34.1734 Q1519.37 33.4443 1517.87 33.1202 Q1516.41 32.7556 1514.63 32.7556 Q1508.31 32.7556 1504.91 36.8875 Q1501.55 40.9789 1501.55 48.6757 L1501.55 72.576 L1494.05 72.576 L1494.05 27.2059 L1501.55 27.2059 L1501.55 34.2544 Q1503.9 30.1225 1507.66 28.1376 Q1511.43 26.1121 1516.82 26.1121 Q1517.59 26.1121 1518.52 26.2337 Q1519.45 26.3147 1520.59 26.5172 L1520.63 34.1734 Z" fill="#000000" fill-rule="evenodd" fill-opacity="1" /><path clip-path="url(#clip240)" d="M 0 0 M1555.95 12.096 L1588.07 12.096 L1588.07 18.9825 L1563.45 18.9825 L1563.45 33.8088 Q1565.23 33.2012 1567.01 32.9176 Q1568.79 32.5936 1570.57 32.5936 Q1580.7 32.5936 1586.62 38.1433 Q1592.53 43.6931 1592.53 53.1722 Q1592.53 62.9348 1586.45 68.3631 Q1580.38 73.7508 1569.32 73.7508 Q1565.51 73.7508 1561.54 73.1026 Q1557.61 72.4545 1553.4 71.1582 L1553.4 62.9348 Q1557.04 64.9198 1560.93 65.892 Q1564.82 66.8642 1569.16 66.8642 Q1576.16 66.8642 1580.26 63.1779 Q1584.35 59.4916 1584.35 53.1722 Q1584.35 46.8528 1580.26 43.1664 Q1576.16 39.4801 1569.16 39.4801 Q1565.88 39.4801 1562.59 40.2093 Q1559.35 40.9384 1555.95 42.4778 L1555.95 12.096 Z" fill="#000000" fill-rule="evenodd" fill-opacity="1" /><path clip-path="url(#clip240)" d="M 0 0 M1626.15 17.4837 Q1619.83 17.4837 1616.63 23.7221 Q1613.47 29.92 1613.47 42.3968 Q1613.47 54.833 1616.63 61.0714 Q1619.83 67.2693 1626.15 67.2693 Q1632.51 67.2693 1635.67 61.0714 Q1638.87 54.833 1638.87 42.3968 Q1638.87 29.92 1635.67 23.7221 Q1632.51 17.4837 1626.15 17.4837 M1626.15 11.0023 Q1636.32 11.0023 1641.67 19.0636 Q1647.06 27.0843 1647.06 42.3968 Q1647.06 57.6687 1641.67 65.73 Q1636.32 73.7508 1626.15 73.7508 Q1615.99 73.7508 1610.6 65.73 Q1605.25 57.6687 1605.25 42.3968 Q1605.25 27.0843 1610.6 19.0636 Q1615.99 11.0023 1626.15 11.0023 Z" fill="#000000" fill-rule="evenodd" fill-opacity="1" /><path clip-path="url(#clip240)" d="M 0 0 M1712.88 45.9616 Q1709.36 45.9616 1707.33 48.9592 Q1705.35 51.9569 1705.35 57.3041 Q1705.35 62.5703 1707.33 65.6084 Q1709.36 68.6061 1712.88 68.6061 Q1716.33 68.6061 1718.31 65.6084 Q1720.34 62.5703 1720.34 57.3041 Q1720.34 51.9974 1718.31 48.9997 Q1716.33 45.9616 1712.88 45.9616 M1712.88 40.8169 Q1719.28 40.8169 1723.05 45.2729 Q1726.82 49.7289 1726.82 57.3041 Q1726.82 64.8793 1723.01 69.3353 Q1719.24 73.7508 1712.88 73.7508 Q1706.4 73.7508 1702.63 69.3353 Q1698.87 64.8793 1698.87 57.3041 Q1698.87 49.6884 1702.63 45.2729 Q1706.44 40.8169 1712.88 40.8169 M1671.08 16.1469 Q1667.59 16.1469 1665.57 19.1851 Q1663.58 22.1828 1663.58 27.4489 Q1663.58 32.7961 1665.57 35.7938 Q1667.55 38.7915 1671.08 38.7915 Q1674.6 38.7915 1676.59 35.7938 Q1678.61 32.7961 1678.61 27.4489 Q1678.61 22.2233 1676.59 19.1851 Q1674.56 16.1469 1671.08 16.1469 M1707.66 11.0023 L1714.14 11.0023 L1676.3 73.7508 L1669.82 73.7508 L1707.66 11.0023 M1671.08 11.0023 Q1677.48 11.0023 1681.29 15.4583 Q1685.09 19.8737 1685.09 27.4489 Q1685.09 35.1051 1681.29 39.5206 Q1677.52 43.9361 1671.08 43.9361 Q1664.64 43.9361 1660.87 39.5206 Q1657.14 35.0646 1657.14 27.4489 Q1657.14 19.9142 1660.91 15.4583 Q1664.68 11.0023 1671.08 11.0023 Z" fill="#000000" fill-rule="evenodd" fill-opacity="1" /><path clip-path="url(#clip240)" d="M 0 0 M1765.91 12.096 L1800.67 12.096 L1800.67 18.9825 L1774.09 18.9825 L1774.09 36.8065 L1798.07 36.8065 L1798.07 43.6931 L1774.09 43.6931 L1774.09 72.576 L1765.91 72.576 L1765.91 12.096 Z" fill="#000000" fill-rule="evenodd" fill-opacity="1" /><path clip-path="url(#clip240)" d="M 0 0 M1827.93 32.4315 Q1821.93 32.4315 1818.45 37.1306 Q1814.97 41.7891 1814.97 49.9314 Q1814.97 58.0738 1818.41 62.7728 Q1821.89 67.4314 1827.93 67.4314 Q1833.88 67.4314 1837.37 62.7323 Q1840.85 58.0333 1840.85 49.9314 Q1840.85 41.8701 1837.37 37.1711 Q1833.88 32.4315 1827.93 32.4315 M1827.93 26.1121 Q1837.65 26.1121 1843.2 32.4315 Q1848.75 38.7509 1848.75 49.9314 Q1848.75 61.0714 1843.2 67.4314 Q1837.65 73.7508 1827.93 73.7508 Q1818.17 73.7508 1812.62 67.4314 Q1807.11 61.0714 1807.11 49.9314 Q1807.11 38.7509 1812.62 32.4315 Q1818.17 26.1121 1827.93 26.1121 Z" fill="#000000" fill-rule="evenodd" fill-opacity="1" /><path clip-path="url(#clip240)" d="M 0 0 M1887.4 34.1734 Q1886.14 33.4443 1884.64 33.1202 Q1883.18 32.7556 1881.4 32.7556 Q1875.08 32.7556 1871.68 36.8875 Q1868.32 40.9789 1868.32 48.6757 L1868.32 72.576 L1860.82 72.576 L1860.82 27.2059 L1868.32 27.2059 L1868.32 34.2544 Q1870.67 30.1225 1874.43 28.1376 Q1878.2 26.1121 1883.59 26.1121 Q1884.36 26.1121 1885.29 26.2337 Q1886.22 26.3147 1887.36 26.5172 L1887.4 34.1734 Z" fill="#000000" fill-rule="evenodd" fill-opacity="1" /><path clip-path="url(#clip240)" d="M 0 0 M1929.08 35.9153 Q1931.87 30.8922 1935.76 28.5022 Q1939.65 26.1121 1944.92 26.1121 Q1952.01 26.1121 1955.86 31.0947 Q1959.7 36.0368 1959.7 45.1919 L1959.7 72.576 L1952.21 72.576 L1952.21 45.4349 Q1952.21 38.913 1949.9 35.7533 Q1947.59 32.5936 1942.85 32.5936 Q1937.06 32.5936 1933.7 36.4419 Q1930.34 40.2903 1930.34 46.9338 L1930.34 72.576 L1922.84 72.576 L1922.84 45.4349 Q1922.84 38.8725 1920.53 35.7533 Q1918.22 32.5936 1913.4 32.5936 Q1907.69 32.5936 1904.33 36.4824 Q1900.97 40.3308 1900.97 46.9338 L1900.97 72.576 L1893.47 72.576 L1893.47 27.2059 L1900.97 27.2059 L1900.97 34.2544 Q1903.52 30.082 1907.08 28.0971 Q1910.65 26.1121 1915.55 26.1121 Q1920.49 26.1121 1923.93 28.6237 Q1927.42 31.1352 1929.08 35.9153 Z" fill="#000000" fill-rule="evenodd" fill-opacity="1" /><path clip-path="url(#clip240)" d="M 0 0 M1995.19 49.7694 Q1986.16 49.7694 1982.67 51.8354 Q1979.19 53.9013 1979.19 58.8839 Q1979.19 62.8538 1981.78 65.2034 Q1984.41 67.5124 1988.91 67.5124 Q1995.11 67.5124 1998.84 63.1374 Q2002.6 58.7219 2002.6 51.4303 L2002.6 49.7694 L1995.19 49.7694 M2010.06 46.6907 L2010.06 72.576 L2002.6 72.576 L2002.6 65.6895 Q2000.05 69.8214 1996.24 71.8063 Q1992.44 73.7508 1986.93 73.7508 Q1979.96 73.7508 1975.83 69.8619 Q1971.74 65.9325 1971.74 59.3701 Q1971.74 51.7138 1976.84 47.825 Q1981.98 43.9361 1992.15 43.9361 L2002.6 43.9361 L2002.6 43.2069 Q2002.6 38.0623 1999.2 35.2672 Q1995.84 32.4315 1989.72 32.4315 Q1985.83 32.4315 1982.15 33.3632 Q1978.46 34.295 1975.06 36.1584 L1975.06 29.2718 Q1979.15 27.692 1983 26.9223 Q1986.85 26.1121 1990.49 26.1121 Q2000.34 26.1121 2005.2 31.2163 Q2010.06 36.3204 2010.06 46.6907 Z" fill="#000000" fill-rule="evenodd" fill-opacity="1" /><path clip-path="url(#clip240)" d="M 0 0 M2032.78 14.324 L2032.78 27.2059 L2048.14 27.2059 L2048.14 32.9987 L2032.78 32.9987 L2032.78 57.6282 Q2032.78 63.1779 2034.28 64.7578 Q2035.82 66.3376 2040.48 66.3376 L2048.14 66.3376 L2048.14 72.576 L2040.48 72.576 Q2031.85 72.576 2028.57 69.3758 Q2025.29 66.1351 2025.29 57.6282 L2025.29 32.9987 L2019.82 32.9987 L2019.82 27.2059 L2025.29 27.2059 L2025.29 14.324 L2032.78 14.324 Z" fill="#000000" fill-rule="evenodd" fill-opacity="1" /><path clip-path="url(#clip240)" d="M 0 0 M2057.94 27.2059 L2065.39 27.2059 L2065.39 72.576 L2057.94 72.576 L2057.94 27.2059 M2057.94 9.54393 L2065.39 9.54393 L2065.39 18.9825 L2057.94 18.9825 L2057.94 9.54393 Z" fill="#000000" fill-rule="evenodd" fill-opacity="1" /><path clip-path="url(#clip240)" d="M 0 0 M2098.57 32.4315 Q2092.57 32.4315 2089.09 37.1306 Q2085.61 41.7891 2085.61 49.9314 Q2085.61 58.0738 2089.05 62.7728 Q2092.53 67.4314 2098.57 67.4314 Q2104.52 67.4314 2108.01 62.7323 Q2111.49 58.0333 2111.49 49.9314 Q2111.49 41.8701 2108.01 37.1711 Q2104.52 32.4315 2098.57 32.4315 M2098.57 26.1121 Q2108.29 26.1121 2113.84 32.4315 Q2119.39 38.7509 2119.39 49.9314 Q2119.39 61.0714 2113.84 67.4314 Q2108.29 73.7508 2098.57 73.7508 Q2088.81 73.7508 2083.26 67.4314 Q2077.75 61.0714 2077.75 49.9314 Q2077.75 38.7509 2083.26 32.4315 Q2088.81 26.1121 2098.57 26.1121 Z" fill="#000000" fill-rule="evenodd" fill-opacity="1" /><path clip-path="url(#clip240)" d="M 0 0 M2169.46 45.1919 L2169.46 72.576 L2162.01 72.576 L2162.01 45.4349 Q2162.01 38.994 2159.5 35.7938 Q2156.98 32.5936 2151.96 32.5936 Q2145.92 32.5936 2142.44 36.4419 Q2138.96 40.2903 2138.96 46.9338 L2138.96 72.576 L2131.46 72.576 L2131.46 27.2059 L2138.96 27.2059 L2138.96 34.2544 Q2141.63 30.163 2145.24 28.1376 Q2148.88 26.1121 2153.62 26.1121 Q2161.44 26.1121 2165.45 30.9732 Q2169.46 35.7938 2169.46 45.1919 Z" fill="#000000" fill-rule="evenodd" fill-opacity="1" /><circle clip-path="url(#clip242)" cx="309.067" cy="168.629" r="14" fill="#009af9" fill-rule="evenodd" fill-opacity="1" stroke="#000000" stroke-opacity="1" stroke-width="3.2"/>
<circle clip-path="url(#clip242)" cx="507.483" cy="393.762" r="14" fill="#009af9" fill-rule="evenodd" fill-opacity="1" stroke="#000000" stroke-opacity="1" stroke-width="3.2"/>
<circle clip-path="url(#clip242)" cx="705.9" cy="588.196" r="14" fill="#009af9" fill-rule="evenodd" fill-opacity="1" stroke="#000000" stroke-opacity="1" stroke-width="3.2"/>
<circle clip-path="url(#clip242)" cx="904.316" cy="792.862" r="14" fill="#009af9" fill-rule="evenodd" fill-opacity="1" stroke="#000000" stroke-opacity="1" stroke-width="3.2"/>
<circle clip-path="url(#clip242)" cx="1102.73" cy="977.062" r="14" fill="#009af9" fill-rule="evenodd" fill-opacity="1" stroke="#000000" stroke-opacity="1" stroke-width="3.2"/>
<circle clip-path="url(#clip242)" cx="1301.15" cy="1099.86" r="14" fill="#009af9" fill-rule="evenodd" fill-opacity="1" stroke="#000000" stroke-opacity="1" stroke-width="3.2"/>
<circle clip-path="url(#clip242)" cx="1499.57" cy="1181.73" r="14" fill="#009af9" fill-rule="evenodd" fill-opacity="1" stroke="#000000" stroke-opacity="1" stroke-width="3.2"/>
<circle clip-path="url(#clip242)" cx="1697.98" cy="1284.06" r="14" fill="#009af9" fill-rule="evenodd" fill-opacity="1" stroke="#000000" stroke-opacity="1" stroke-width="3.2"/>
<circle clip-path="url(#clip242)" cx="1896.4" cy="1335.23" r="14" fill="#009af9" fill-rule="evenodd" fill-opacity="1" stroke="#000000" stroke-opacity="1" stroke-width="3.2"/>
<circle clip-path="url(#clip242)" cx="2094.81" cy="1325" r="14" fill="#009af9" fill-rule="evenodd" fill-opacity="1" stroke="#000000" stroke-opacity="1" stroke-width="3.2"/>
<circle clip-path="url(#clip242)" cx="2293.23" cy="1386.4" r="14" fill="#009af9" fill-rule="evenodd" fill-opacity="1" stroke="#000000" stroke-opacity="1" stroke-width="3.2"/>
<polyline clip-path="url(#clip242)" style="stroke:#e26f46; stroke-width:4; stroke-opacity:1; fill:none" points="
  309.067,160.256 328.909,185.188 348.75,209.86 368.592,234.271 388.434,258.422 408.275,282.312 428.117,305.942 447.958,329.311 467.8,352.42 487.642,375.268 
  507.483,397.856 527.325,420.183 547.167,442.25 567.008,464.056 586.85,485.602 606.692,506.887 626.533,527.912 646.375,548.676 666.216,569.18 686.058,589.424 
  705.9,609.407 725.741,629.129 745.583,648.591 765.425,667.792 785.266,686.733 805.108,705.414 824.95,723.834 844.791,741.993 864.633,759.892 884.475,777.531 
  904.316,794.909 924.158,812.027 943.999,828.884 963.841,845.48 983.683,861.816 1003.52,877.892 1023.37,893.707 1043.21,909.262 1063.05,924.556 1082.89,939.59 
  1102.73,954.363 1122.57,968.876 1142.42,983.128 1162.26,997.12 1182.1,1010.85 1201.94,1024.32 1221.78,1037.53 1241.62,1050.48 1261.47,1063.17 1281.31,1075.6 
  1301.15,1087.77 1320.99,1099.68 1340.83,1111.32 1360.67,1122.71 1380.52,1133.84 1400.36,1144.7 1420.2,1155.31 1440.04,1165.65 1459.88,1175.74 1479.72,1185.56 
  1499.57,1195.13 1519.41,1204.43 1539.25,1213.47 1559.09,1222.25 1578.93,1230.77 1598.77,1239.04 1618.62,1247.04 1638.46,1254.78 1658.3,1262.26 1678.14,1269.48 
  1697.98,1276.43 1717.82,1283.13 1737.67,1289.57 1757.51,1295.75 1777.35,1301.66 1797.19,1307.32 1817.03,1312.72 1836.87,1317.85 1856.71,1322.73 1876.56,1327.34 
  1896.4,1331.69 1916.24,1335.79 1936.08,1339.62 1955.92,1343.19 1975.76,1346.5 1995.61,1349.56 2015.45,1352.35 2035.29,1354.88 2055.13,1357.15 2074.97,1359.16 
  2094.81,1360.91 2114.66,1362.39 2134.5,1363.62 2154.34,1364.59 2174.18,1365.3 2194.02,1365.74 2213.86,1365.93 2233.71,1365.85 2253.55,1365.52 2273.39,1364.92 
  2293.23,1364.07 
  "/>
<path clip-path="url(#clip240)" d="
M1749.24 287.756 L2282.65 287.756 L2282.65 166.796 L1749.24 166.796  Z
  " fill="#ffffff" fill-rule="evenodd" fill-opacity="1"/>
<polyline clip-path="url(#clip240)" style="stroke:#000000; stroke-width:4; stroke-opacity:1; fill:none" points="
  1749.24,287.756 2282.65,287.756 2282.65,166.796 1749.24,166.796 1749.24,287.756 
  "/>
<polyline clip-path="url(#clip240)" style="stroke:#e26f46; stroke-width:4; stroke-opacity:1; fill:none" points="
  1772.61,227.276 1912.82,227.276 
  "/>
<path clip-path="url(#clip240)" d="M 0 0 M1952.21 213.167 Q1947.12 213.167 1944.11 216.963 Q1941.12 220.76 1941.12 227.31 Q1941.12 233.838 1944.11 237.634 Q1947.12 241.431 1952.21 241.431 Q1957.3 241.431 1960.26 237.634 Q1963.25 233.838 1963.25 227.31 Q1963.25 220.76 1960.26 216.963 Q1957.3 213.167 1952.21 213.167 M1958.76 243.931 L1964.92 250.667 L1959.27 250.667 L1954.15 245.134 Q1953.39 245.181 1952.97 245.204 Q1952.58 245.227 1952.21 245.227 Q1944.92 245.227 1940.54 240.366 Q1936.19 235.482 1936.19 227.31 Q1936.19 219.116 1940.54 214.255 Q1944.92 209.371 1952.21 209.371 Q1959.48 209.371 1963.83 214.255 Q1968.18 219.116 1968.18 227.31 Q1968.18 233.329 1965.75 237.611 Q1963.34 241.894 1958.76 243.931 Z" fill="#000000" fill-rule="evenodd" fill-opacity="1" /><path clip-path="url(#clip240)" d="M 0 0 M1974.87 234.324 L1974.87 218.63 L1979.13 218.63 L1979.13 234.162 Q1979.13 237.843 1980.56 239.695 Q1982 241.523 1984.87 241.523 Q1988.32 241.523 1990.31 239.324 Q1992.32 237.125 1992.32 233.329 L1992.32 218.63 L1996.58 218.63 L1996.58 244.556 L1992.32 244.556 L1992.32 240.574 Q1990.77 242.935 1988.71 244.093 Q1986.68 245.227 1983.97 245.227 Q1979.5 245.227 1977.19 242.449 Q1974.87 239.671 1974.87 234.324 M1985.59 218.005 L1985.59 218.005 Z" fill="#000000" fill-rule="evenodd" fill-opacity="1" /><path clip-path="url(#clip240)" d="M 0 0 M2017.14 231.523 Q2011.98 231.523 2009.99 232.704 Q2008 233.884 2008 236.732 Q2008 239 2009.48 240.343 Q2010.98 241.662 2013.55 241.662 Q2017.09 241.662 2019.22 239.162 Q2021.37 236.639 2021.37 232.472 L2021.37 231.523 L2017.14 231.523 M2025.63 229.764 L2025.63 244.556 L2021.37 244.556 L2021.37 240.621 Q2019.92 242.982 2017.74 244.116 Q2015.56 245.227 2012.42 245.227 Q2008.44 245.227 2006.07 243.005 Q2003.74 240.759 2003.74 237.009 Q2003.74 232.634 2006.65 230.412 Q2009.59 228.19 2015.4 228.19 L2021.37 228.19 L2021.37 227.773 Q2021.37 224.834 2019.43 223.236 Q2017.51 221.616 2014.01 221.616 Q2011.79 221.616 2009.69 222.148 Q2007.58 222.681 2005.63 223.746 L2005.63 219.81 Q2007.97 218.908 2010.17 218.468 Q2012.37 218.005 2014.45 218.005 Q2020.08 218.005 2022.86 220.922 Q2025.63 223.838 2025.63 229.764 Z" fill="#000000" fill-rule="evenodd" fill-opacity="1" /><path clip-path="url(#clip240)" d="M 0 0 M2051.47 222.565 L2051.47 208.537 L2055.73 208.537 L2055.73 244.556 L2051.47 244.556 L2051.47 240.667 Q2050.12 242.982 2048.06 244.116 Q2046.03 245.227 2043.16 245.227 Q2038.46 245.227 2035.5 241.477 Q2032.56 237.727 2032.56 231.616 Q2032.56 225.505 2035.5 221.755 Q2038.46 218.005 2043.16 218.005 Q2046.03 218.005 2048.06 219.139 Q2050.12 220.25 2051.47 222.565 M2036.95 231.616 Q2036.95 236.315 2038.87 239 Q2040.82 241.662 2044.2 241.662 Q2047.58 241.662 2049.52 239 Q2051.47 236.315 2051.47 231.616 Q2051.47 226.917 2049.52 224.255 Q2047.58 221.57 2044.2 221.57 Q2040.82 221.57 2038.87 224.255 Q2036.95 226.917 2036.95 231.616 Z" fill="#000000" fill-rule="evenodd" fill-opacity="1" /><path clip-path="url(#clip240)" d="M 0 0 M2079.52 222.611 Q2078.81 222.195 2077.95 222.01 Q2077.12 221.801 2076.1 221.801 Q2072.49 221.801 2070.54 224.162 Q2068.62 226.5 2068.62 230.898 L2068.62 244.556 L2064.34 244.556 L2064.34 218.63 L2068.62 218.63 L2068.62 222.658 Q2069.96 220.297 2072.12 219.162 Q2074.27 218.005 2077.35 218.005 Q2077.79 218.005 2078.32 218.074 Q2078.85 218.121 2079.5 218.236 L2079.52 222.611 Z" fill="#000000" fill-rule="evenodd" fill-opacity="1" /><path clip-path="url(#clip240)" d="M 0 0 M2095.77 231.523 Q2090.61 231.523 2088.62 232.704 Q2086.63 233.884 2086.63 236.732 Q2086.63 239 2088.11 240.343 Q2089.62 241.662 2092.18 241.662 Q2095.73 241.662 2097.86 239.162 Q2100.01 236.639 2100.01 232.472 L2100.01 231.523 L2095.77 231.523 M2104.27 229.764 L2104.27 244.556 L2100.01 244.556 L2100.01 240.621 Q2098.55 242.982 2096.37 244.116 Q2094.2 245.227 2091.05 245.227 Q2087.07 245.227 2084.71 243.005 Q2082.37 240.759 2082.37 237.009 Q2082.37 232.634 2085.29 230.412 Q2088.23 228.19 2094.04 228.19 L2100.01 228.19 L2100.01 227.773 Q2100.01 224.834 2098.06 223.236 Q2096.14 221.616 2092.65 221.616 Q2090.43 221.616 2088.32 222.148 Q2086.21 222.681 2084.27 223.746 L2084.27 219.81 Q2086.61 218.908 2088.8 218.468 Q2091 218.005 2093.09 218.005 Q2098.71 218.005 2101.49 220.922 Q2104.27 223.838 2104.27 229.764 Z" fill="#000000" fill-rule="evenodd" fill-opacity="1" /><path clip-path="url(#clip240)" d="M 0 0 M2117.25 211.269 L2117.25 218.63 L2126.03 218.63 L2126.03 221.94 L2117.25 221.94 L2117.25 236.014 Q2117.25 239.185 2118.11 240.088 Q2118.99 240.991 2121.65 240.991 L2126.03 240.991 L2126.03 244.556 L2121.65 244.556 Q2116.72 244.556 2114.85 242.727 Q2112.97 240.875 2112.97 236.014 L2112.97 221.94 L2109.85 221.94 L2109.85 218.63 L2112.97 218.63 L2112.97 211.269 L2117.25 211.269 Z" fill="#000000" fill-rule="evenodd" fill-opacity="1" /><path clip-path="url(#clip240)" d="M 0 0 M2131.63 218.63 L2135.89 218.63 L2135.89 244.556 L2131.63 244.556 L2131.63 218.63 M2131.63 208.537 L2135.89 208.537 L2135.89 213.931 L2131.63 213.931 L2131.63 208.537 Z" fill="#000000" fill-rule="evenodd" fill-opacity="1" /><path clip-path="url(#clip240)" d="M 0 0 M2163.46 219.625 L2163.46 223.607 Q2161.65 222.611 2159.82 222.125 Q2158.02 221.616 2156.17 221.616 Q2152.02 221.616 2149.73 224.255 Q2147.44 226.871 2147.44 231.616 Q2147.44 236.361 2149.73 239 Q2152.02 241.616 2156.17 241.616 Q2158.02 241.616 2159.82 241.13 Q2161.65 240.621 2163.46 239.625 L2163.46 243.56 Q2161.67 244.394 2159.75 244.81 Q2157.86 245.227 2155.7 245.227 Q2149.85 245.227 2146.4 241.546 Q2142.95 237.866 2142.95 231.616 Q2142.95 225.273 2146.42 221.639 Q2149.92 218.005 2155.98 218.005 Q2157.95 218.005 2159.82 218.422 Q2161.7 218.815 2163.46 219.625 Z" fill="#000000" fill-rule="evenodd" fill-opacity="1" /><path clip-path="url(#clip240)" d="M 0 0 M2186.12 209.996 L2205.98 209.996 L2205.98 213.931 L2190.8 213.931 L2190.8 224.116 L2204.5 224.116 L2204.5 228.051 L2190.8 228.051 L2190.8 244.556 L2186.12 244.556 L2186.12 209.996 Z" fill="#000000" fill-rule="evenodd" fill-opacity="1" /><path clip-path="url(#clip240)" d="M 0 0 M2209.75 218.63 L2214.01 218.63 L2214.01 244.556 L2209.75 244.556 L2209.75 218.63 M2209.75 208.537 L2214.01 208.537 L2214.01 213.931 L2209.75 213.931 L2209.75 208.537 Z" fill="#000000" fill-rule="evenodd" fill-opacity="1" /><path clip-path="url(#clip240)" d="M 0 0 M2227.14 211.269 L2227.14 218.63 L2235.91 218.63 L2235.91 221.94 L2227.14 221.94 L2227.14 236.014 Q2227.14 239.185 2227.99 240.088 Q2228.87 240.991 2231.54 240.991 L2235.91 240.991 L2235.91 244.556 L2231.54 244.556 Q2226.61 244.556 2224.73 242.727 Q2222.86 240.875 2222.86 236.014 L2222.86 221.94 L2219.73 221.94 L2219.73 218.63 L2222.86 218.63 L2222.86 211.269 L2227.14 211.269 Z" fill="#000000" fill-rule="evenodd" fill-opacity="1" /></svg>
