<?xml version="1.0" encoding="UTF-8" standalone="no"?>
<!-- Created with Inkscape (http://www.inkscape.org/) -->

<svg
   xmlns:dc="http://purl.org/dc/elements/1.1/"
   xmlns:cc="http://creativecommons.org/ns#"
   xmlns:rdf="http://www.w3.org/1999/02/22-rdf-syntax-ns#"
   xmlns:svg="http://www.w3.org/2000/svg"
   xmlns="http://www.w3.org/2000/svg"
   xmlns:inkscape="http://www.inkscape.org/namespaces/inkscape"
   version="1.1"
   width="538.75"
   height="463.75"
   id="svg2"
   xml:space="preserve"><metadata
     id="metadata8"><rdf:RDF><cc:Work
         rdf:about=""><dc:format>image/svg+xml</dc:format><dc:type
           rdf:resource="http://purl.org/dc/dcmitype/StillImage" /></cc:Work></rdf:RDF></metadata><defs
     id="defs6"><clipPath
       id="clipPath18"><path
         d="m 172,0 0,3710 4138,0 L 4310,0 172,0 z"
         inkscape:connector-curvature="0"
         id="path20" /></clipPath><clipPath
       id="clipPath24"><path
         d="m 172,0 0,3710 4138,0 L 4310,0 172,0 z m 1715.53,3551.11 0,164.3 -80.15,0 0,-164.3 0,0 40.07,120.21 40.08,-120.21 z"
         inkscape:connector-curvature="0"
         id="path26" /></clipPath><clipPath
       id="clipPath34"><path
         d="m 172,0 4138,0 0,3710 -4138,0 0,-3710 z"
         inkscape:connector-curvature="0"
         id="path36" /></clipPath><clipPath
       id="clipPath44"><path
         d="m 172,0 0,3710 4138,0 L 4310,0 172,0 z"
         inkscape:connector-curvature="0"
         id="path46" /></clipPath><clipPath
       id="clipPath50"><path
         d="m 172,0 0,3710 4138,0 L 4310,0 172,0 z m 3985.67,1321.03 164.3,0 0,80.15 -164.3,0 0,0 120.22,-40.07 -120.22,-40.08 z"
         inkscape:connector-curvature="0"
         id="path52" /></clipPath><clipPath
       id="clipPath60"><path
         d="m 172,0 4138,0 0,3710 -4138,0 0,-3710 z"
         inkscape:connector-curvature="0"
         id="path62" /></clipPath><clipPath
       id="clipPath70"><path
         d="m 172,0 0,3710 4138,0 L 4310,0 172,0 z m 1302.77,2169.25 -77.47,150.94 -71.46,-36.73 77.47,-150.94 0,0 -28.05,142.92 99.51,-106.19 z"
         inkscape:connector-curvature="0"
         id="path72" /></clipPath><clipPath
       id="clipPath80"><path
         d="m 172,0 4138,0 0,3710 -4138,0 0,-3710 z"
         inkscape:connector-curvature="0"
         id="path82" /></clipPath><clipPath
       id="clipPath90"><path
         d="m 172,0 0,3710 4138,0 L 4310,0 172,0 z m 2769.45,1444.59 -77.47,150.95 -71.47,-36.74 77.48,-150.94 0,0 -28.05,142.93 99.51,-106.2 z"
         inkscape:connector-curvature="0"
         id="path92" /></clipPath><clipPath
       id="clipPath100"><path
         d="m 172,0 4138,0 0,3710 -4138,0 0,-3710 z"
         inkscape:connector-curvature="0"
         id="path102" /></clipPath><clipPath
       id="clipPath110"><path
         d="m 172,0 0,3710 4138,0 L 4310,0 172,0 z m 2182.38,2312.18 74.14,152.94 -72.14,34.73 -74.13,-152.28 0,0 97.51,108.2 -25.38,-143.59 z"
         inkscape:connector-curvature="0"
         id="path112" /></clipPath><clipPath
       id="clipPath120"><path
         d="m 172,0 4138,0 0,3710 -4138,0 0,-3710 z"
         inkscape:connector-curvature="0"
         id="path122" /></clipPath><clipPath
       id="clipPath130"><path
         d="m 172,0 0,3710 4138,0 L 4310,0 172,0 z m 2987.18,674.52 152.28,-74.805 34.73,72.133 -152.28,74.8 0,0 108.87,-98.175 -143.6,26.047 z"
         inkscape:connector-curvature="0"
         id="path132" /></clipPath><clipPath
       id="clipPath140"><path
         d="m 172,0 4138,0 0,3710 -4138,0 0,-3710 z"
         inkscape:connector-curvature="0"
         id="path142" /></clipPath><clipPath
       id="clipPath150"><path
         d="m 172,0 0,3710 4138,0 L 4310,0 172,0 z m 2299.93,2352.25 -77.48,150.94 -71.46,-36.73 77.47,-150.94 0,0 -28.05,142.92 99.52,-106.19 z"
         inkscape:connector-curvature="0"
         id="path152" /></clipPath><clipPath
       id="clipPath160"><path
         d="m 172,0 4138,0 0,3710 -4138,0 0,-3710 z"
         inkscape:connector-curvature="0"
         id="path162" /></clipPath><clipPath
       id="clipPath170"><path
         d="m 0,4020 0,0 0,0 0,0 z"
         inkscape:connector-curvature="0"
         id="path172" /></clipPath><clipPath
       id="clipPath222"><path
         d="m 0,4020 0,0 0,0 0,0 z"
         inkscape:connector-curvature="0"
         id="path224" /></clipPath></defs><g
     transform="matrix(1.25,0,0,-1.25,0,463.75)"
     id="g10"><g
       transform="scale(0.1,0.1)"
       id="g12"><g
         id="g14"><g
           clip-path="url(#clipPath18)"
           id="g16"><g
             clip-path="url(#clipPath24)"
             id="g22"><path
               d="m 1847.45,8.63672 0,3696.75328"
               inkscape:connector-curvature="0"
               id="path28"
               style="fill:none;stroke:#000000;stroke-width:20.03660011;stroke-linecap:butt;stroke-linejoin:miter;stroke-miterlimit:10;stroke-opacity:1;stroke-dasharray:none" /></g></g></g><g
         id="g30"><g
           clip-path="url(#clipPath34)"
           id="g32"><path
             d="m 1887.53,3551.11 -40.08,120.21 -40.07,-120.21"
             inkscape:connector-curvature="0"
             id="path38"
             style="fill:none;stroke:#000000;stroke-width:20.03660011;stroke-linecap:butt;stroke-linejoin:miter;stroke-miterlimit:10;stroke-opacity:1;stroke-dasharray:none" /></g></g><g
         id="g40"><g
           clip-path="url(#clipPath44)"
           id="g42"><g
             clip-path="url(#clipPath50)"
             id="g48"><path
               d="m 194.434,1361.11 4117.516,0"
               inkscape:connector-curvature="0"
               id="path54"
               style="fill:none;stroke:#000000;stroke-width:20.03660011;stroke-linecap:butt;stroke-linejoin:miter;stroke-miterlimit:10;stroke-opacity:1;stroke-dasharray:none" /></g></g></g><g
         id="g56"><g
           clip-path="url(#clipPath60)"
           id="g58"><path
             d="m 4157.67,1321.03 120.22,40.08 -120.22,40.07"
             inkscape:connector-curvature="0"
             id="path64"
             style="fill:none;stroke:#000000;stroke-width:20.03660011;stroke-linecap:butt;stroke-linejoin:miter;stroke-miterlimit:10;stroke-opacity:1;stroke-dasharray:none" /></g></g><g
         id="g66"><g
           clip-path="url(#clipPath70)"
           id="g68"><path
             d="m 1847.45,1361.11 -480.88,931.7"
             inkscape:connector-curvature="0"
             id="path74"
             style="fill:none;stroke:#000000;stroke-width:10.01830006;stroke-linecap:butt;stroke-linejoin:miter;stroke-miterlimit:10;stroke-opacity:1;stroke-dasharray:none" /></g></g><g
         id="g76"><g
           clip-path="url(#clipPath80)"
           id="g78"><path
             d="m 1474.77,2169.25 -99.51,106.19 28.05,-142.92"
             inkscape:connector-curvature="0"
             id="path84"
             style="fill:none;stroke:#000000;stroke-width:10.01830006;stroke-linecap:butt;stroke-linejoin:miter;stroke-miterlimit:10;stroke-opacity:1;stroke-dasharray:none" /></g></g><g
         id="g86"><g
           clip-path="url(#clipPath90)"
           id="g88"><path
             d="M 3314.13,636.449 2833.25,1568.15"
             inkscape:connector-curvature="0"
             id="path94"
             style="fill:none;stroke:#000000;stroke-width:10.01830006;stroke-linecap:butt;stroke-linejoin:miter;stroke-miterlimit:10;stroke-opacity:1;stroke-dasharray:none" /></g></g><g
         id="g96"><g
           clip-path="url(#clipPath100)"
           id="g98"><path
             d="m 2941.45,1444.59 -99.51,106.2 28.05,-142.93"
             inkscape:connector-curvature="0"
             id="path104"
             style="fill:none;stroke:#000000;stroke-width:10.01830006;stroke-linecap:butt;stroke-linejoin:miter;stroke-miterlimit:10;stroke-opacity:1;stroke-dasharray:none" /></g></g><g
         id="g106"><g
           clip-path="url(#clipPath110)"
           id="g108"><path
             d="m 1847.45,1361.11 540.99,1112.03"
             inkscape:connector-curvature="0"
             id="path114"
             style="fill:none;stroke:#000000;stroke-width:10.01830006;stroke-linecap:butt;stroke-linejoin:miter;stroke-miterlimit:10;stroke-opacity:1;stroke-dasharray:none" /></g></g><g
         id="g116"><g
           clip-path="url(#clipPath120)"
           id="g118"><path
             d="m 2354.38,2312.18 25.38,143.59 -97.51,-108.2"
             inkscape:connector-curvature="0"
             id="path124"
             style="fill:none;stroke:#000000;stroke-width:10.01830006;stroke-linecap:butt;stroke-linejoin:miter;stroke-miterlimit:10;stroke-opacity:1;stroke-dasharray:none" /></g></g><g
         id="g126"><g
           clip-path="url(#clipPath130)"
           id="g128"><path
             d="M 1847.45,1361.11 3320.14,639.789"
             inkscape:connector-curvature="0"
             id="path134"
             style="fill:none;stroke:#000000;stroke-width:10.01830006;stroke-linecap:butt;stroke-linejoin:miter;stroke-miterlimit:10;stroke-opacity:1;stroke-dasharray:none" /></g></g><g
         id="g136"><g
           clip-path="url(#clipPath140)"
           id="g138"><path
             d="m 3159.18,674.52 143.6,-26.047 -108.87,98.175"
             inkscape:connector-curvature="0"
             id="path144"
             style="fill:none;stroke:#000000;stroke-width:10.01830006;stroke-linecap:butt;stroke-linejoin:miter;stroke-miterlimit:10;stroke-opacity:1;stroke-dasharray:none" /></g></g><g
         id="g146"><g
           clip-path="url(#clipPath150)"
           id="g148"><path
             d="m 2844.61,1544.11 -480.88,931.7"
             inkscape:connector-curvature="0"
             id="path154"
             style="fill:none;stroke:#000000;stroke-width:10.01830006;stroke-linecap:butt;stroke-linejoin:miter;stroke-miterlimit:10;stroke-opacity:1;stroke-dasharray:none" /></g></g><g
         id="g156"><g
           clip-path="url(#clipPath160)"
           id="g158"><path
             d="m 2471.93,2352.25 -99.52,106.19 28.05,-142.92"
             inkscape:connector-curvature="0"
             id="path164"
             style="fill:none;stroke:#000000;stroke-width:10.01830006;stroke-linecap:butt;stroke-linejoin:miter;stroke-miterlimit:10;stroke-opacity:1;stroke-dasharray:none" /></g></g><g
         id="g166"><g
           clip-path="url(#clipPath170)"
           id="g168"><g
             transform="matrix(1042.8,0,0,-4.8,-870.12,1478.28)"
             id="g174"><rect
               width="1"
               height="1"
               x="0"
               y="0"
               transform="matrix(1,0,0,-1,0,1)"
               id="rect176"
               style="fill:#000000;fill-opacity:1;fill-rule:nonzero" /></g></g></g><g
         transform="scale(10,10)"
         id="g178"><text
           transform="matrix(1,0,0,-1,323.239,42.9402)"
           id="text180"><tspan
             x="0"
             y="0"
             id="tspan182"
             style="font-size:17.2154007px;font-variant:normal;font-weight:normal;writing-mode:lr-tb;fill:#000000;fill-opacity:1;fill-rule:nonzero;stroke:none;font-family:CMBX12;-inkscape-font-specification:CMBX12">v</tspan></text>
<text
           transform="matrix(1,0,0,-1,333.439,40.42028)"
           id="text184"><tspan
             x="0"
             y="0"
             id="tspan186"
             style="font-size:11.9552002px;font-variant:normal;font-weight:normal;writing-mode:lr-tb;fill:#000000;fill-opacity:1;fill-rule:nonzero;stroke:none;font-family:CMR12;-inkscape-font-specification:CMR12">1</tspan></text>
<text
           transform="matrix(1,0,0,-1,145.915,229.28128)"
           id="text188"><tspan
             x="0"
             y="0"
             id="tspan190"
             style="font-size:17.2154007px;font-variant:normal;font-weight:normal;writing-mode:lr-tb;fill:#000000;fill-opacity:1;fill-rule:nonzero;stroke:none;font-family:CMBX12;-inkscape-font-specification:CMBX12">v</tspan></text>
<text
           transform="matrix(1,0,0,-1,156.115,226.64105)"
           id="text192"><tspan
             x="0"
             y="0"
             id="tspan194"
             style="font-size:11.9552002px;font-variant:normal;font-weight:normal;writing-mode:lr-tb;fill:#000000;fill-opacity:1;fill-rule:nonzero;stroke:none;font-family:CMR12;-inkscape-font-specification:CMR12">2</tspan></text>
<text
           transform="matrix(1,0,0,-1,281.302,187.20435)"
           id="text196"><tspan
             x="0"
             y="0"
             id="tspan198"
             style="font-size:17.2154007px;font-variant:normal;font-weight:normal;writing-mode:lr-tb;fill:#000000;fill-opacity:1;fill-rule:nonzero;stroke:none;font-family:CMR17;-inkscape-font-specification:CMR17">2</tspan></text>
<text
           transform="matrix(1,0,0,-1,289.22192,187.20435)"
           id="text200"><tspan
             x="0"
             y="0"
             id="tspan202"
             style="font-size:17.2154007px;font-variant:normal;font-weight:normal;writing-mode:lr-tb;fill:#000000;fill-opacity:1;fill-rule:nonzero;stroke:none;font-family:CMBX12;-inkscape-font-specification:CMBX12">v</tspan></text>
<text
           transform="matrix(1,0,0,-1,299.42192,184.68443)"
           id="text204"><tspan
             x="0"
             y="0"
             id="tspan206"
             style="font-size:11.9552002px;font-variant:normal;font-weight:normal;writing-mode:lr-tb;fill:#000000;fill-opacity:1;fill-rule:nonzero;stroke:none;font-family:CMR12;-inkscape-font-specification:CMR12">2</tspan></text>
<text
           transform="matrix(1,0,0,-1,197.03392,193.21529)"
           id="text208"><tspan
             x="0"
             y="0"
             id="tspan210"
             style="font-size:17.2154007px;font-variant:normal;font-weight:normal;writing-mode:lr-tb;fill:#000000;fill-opacity:1;fill-rule:nonzero;stroke:none;font-family:CMBX12;-inkscape-font-specification:CMBX12">w</tspan></text>
<text
           transform="matrix(1,0,0,-1,419.38892,112.06729)"
           id="text212"><tspan
             x="0"
             y="0"
             id="tspan214"
             style="font-size:17.2154007px;font-variant:normal;font-weight:normal;writing-mode:lr-tb;fill:#000000;fill-opacity:1;fill-rule:nonzero;stroke:none;font-family:CMMI12;-inkscape-font-specification:CMMI12">x</tspan><tspan
             x="-222.44501"
             y="-246.45"
             id="tspan216"
             style="font-size:17.2154007px;font-variant:normal;font-weight:normal;writing-mode:lr-tb;fill:#000000;fill-opacity:1;fill-rule:nonzero;stroke:none;font-family:CMMI12;-inkscape-font-specification:CMMI12">y</tspan></text>
</g><g
         id="g218"><g
           clip-path="url(#clipPath222)"
           id="g220" /></g></g></g></svg>