<?xml version="1.0" encoding="UTF-8" standalone="no"?>
<!-- Created with Inkscape (http://www.inkscape.org/) -->

<svg
   xmlns:dc="http://purl.org/dc/elements/1.1/"
   xmlns:cc="http://creativecommons.org/ns#"
   xmlns:rdf="http://www.w3.org/1999/02/22-rdf-syntax-ns#"
   xmlns:svg="http://www.w3.org/2000/svg"
   xmlns="http://www.w3.org/2000/svg"
   xmlns:inkscape="http://www.inkscape.org/namespaces/inkscape"
   version="1.1"
   width="651.25"
   height="336.25"
   id="svg2"
   xml:space="preserve"><metadata
     id="metadata8"><rdf:RDF><cc:Work
         rdf:about=""><dc:format>image/svg+xml</dc:format><dc:type
           rdf:resource="http://purl.org/dc/dcmitype/StillImage" /></cc:Work></rdf:RDF></metadata><defs
     id="defs6"><clipPath
       id="clipPath18"><path
         d="m 2,0 4168,0 0,2690 L 2,2690 2,0 z"
         inkscape:connector-curvature="0"
         id="path20" /></clipPath><clipPath
       id="clipPath30"><path
         d="m 2,0 0,2690 4168,0 L 4170,0 2,0 z m 2917.38,1777.34 64.67,104.61 -48.82,29.8 -64.04,-104.62 0,0 74.18,65.94 -25.99,-95.73 z m -593.43,-231.42 -122.37,0 0,-57.06 122.37,0 0,0 -95.11,28.53 95.11,28.53 z"
         inkscape:connector-curvature="0"
         id="path32" /></clipPath><clipPath
       id="clipPath40"><path
         d="m 2,0 4168,0 0,2690 L 2,2690 2,0 z"
         inkscape:connector-curvature="0"
         id="path42" /></clipPath><clipPath
       id="clipPath56"><path
         d="m 2,0 0,2690 4168,0 L 4170,0 2,0 z m 2945.91,579.059 64.67,104.613 -48.82,29.797 -64.04,-104.61 0,0 74.18,65.934 -25.99,-95.734 z m -593.43,-231.411 -122.37,0 0,-57.062 122.37,0 0,0 -95.1,28.531 95.1,28.531 z"
         inkscape:connector-curvature="0"
         id="path58" /></clipPath><clipPath
       id="clipPath66"><path
         d="m 2,0 4168,0 0,2690 L 2,2690 2,0 z"
         inkscape:connector-curvature="0"
         id="path68" /></clipPath><clipPath
       id="clipPath78"><path
         d="m 2,0 0,2690 4168,0 L 4170,0 2,0 z m 2420.95,1251.74 -44.38,114.12 -53.26,-20.92 44.38,-114.12 0,0 -7.6,98.91 60.86,-77.99 z"
         inkscape:connector-curvature="0"
         id="path80" /></clipPath><clipPath
       id="clipPath88"><path
         d="m 2,0 4168,0 0,2690 L 2,2690 2,0 z"
         inkscape:connector-curvature="0"
         id="path90" /></clipPath><clipPath
       id="clipPath98"><path
         d="m -170,3000 0,0 0,0 0,0 z"
         inkscape:connector-curvature="0"
         id="path100" /></clipPath></defs><g
     transform="matrix(1.25,0,0,-1.25,0,336.25)"
     id="g10"><g
       transform="scale(0.1,0.1)"
       id="g12"><g
         id="g14"><g
           clip-path="url(#clipPath18)"
           id="g16"><path
             d="M 986.289,2687.14 16.2539,1175.03 l 3109.8061,0 941.51,1483.58 -3109.812,0"
             inkscape:connector-curvature="0"
             id="path22"
             style="fill:none;stroke:#000000;stroke-width:9.51012039;stroke-linecap:butt;stroke-linejoin:miter;stroke-miterlimit:10;stroke-opacity:1;stroke-dasharray:none" /><path
             d="M 786.574,1175.03 44.7852,5.28125 l 3223.9248,0 884.45,1483.57875 -827.38,0"
             inkscape:connector-curvature="0"
             id="path24"
             style="fill:none;stroke:#000000;stroke-width:9.51012039;stroke-linecap:butt;stroke-linejoin:miter;stroke-miterlimit:10;stroke-opacity:1;stroke-dasharray:none" /></g></g><g
         id="g26"><g
           clip-path="url(#clipPath30)"
           id="g28"><path
             d="m 2213.09,1517.39 513.55,0 228.24,370.9"
             inkscape:connector-curvature="0"
             id="path34"
             style="fill:none;stroke:#000000;stroke-width:9.51012039;stroke-linecap:butt;stroke-linejoin:miter;stroke-miterlimit:10;stroke-opacity:1;stroke-dasharray:none" /></g></g><g
         id="g36"><g
           clip-path="url(#clipPath40)"
           id="g38"><path
             d="m 2325.95,1545.92 -95.11,-28.53 95.11,-28.53"
             inkscape:connector-curvature="0"
             id="path44"
             style="fill:none;stroke:#000000;stroke-width:9.51012039;stroke-linecap:butt;stroke-linejoin:miter;stroke-miterlimit:10;stroke-opacity:1;stroke-dasharray:none" /><path
             d="m 2919.38,1777.34 25.99,95.73 -74.18,-65.94"
             inkscape:connector-curvature="0"
             id="path46"
             style="fill:none;stroke:#000000;stroke-width:9.51012039;stroke-linecap:butt;stroke-linejoin:miter;stroke-miterlimit:10;stroke-opacity:1;stroke-dasharray:none" /><path
             d="m 1243.06,2344.77 -513.544,-827.38 1997.124,0 513.55,798.85 -2025.66,0"
             inkscape:connector-curvature="0"
             id="path48"
             style="fill:none;stroke:#000000;stroke-width:4.7550602;stroke-linecap:butt;stroke-linejoin:miter;stroke-miterlimit:10;stroke-opacity:1;stroke-dasharray:76.081;stroke-dashoffset:0" /><path
             d="m 1271.59,1146.5 -513.547,-827.383 1997.127,0 513.54,798.843 -2025.65,0"
             inkscape:connector-curvature="0"
             id="path50"
             style="fill:none;stroke:#000000;stroke-width:4.7550602;stroke-linecap:butt;stroke-linejoin:miter;stroke-miterlimit:10;stroke-opacity:1;stroke-dasharray:76.081;stroke-dashoffset:0" /></g></g><g
         id="g52"><g
           clip-path="url(#clipPath56)"
           id="g54"><path
             d="m 2241.63,319.117 513.54,0 228.24,370.895"
             inkscape:connector-curvature="0"
             id="path60"
             style="fill:none;stroke:#000000;stroke-width:9.51012039;stroke-linecap:butt;stroke-linejoin:miter;stroke-miterlimit:10;stroke-opacity:1;stroke-dasharray:none" /></g></g><g
         id="g62"><g
           clip-path="url(#clipPath66)"
           id="g64"><path
             d="m 2354.48,347.648 -95.1,-28.531 95.1,-28.531"
             inkscape:connector-curvature="0"
             id="path70"
             style="fill:none;stroke:#000000;stroke-width:9.51012039;stroke-linecap:butt;stroke-linejoin:miter;stroke-miterlimit:10;stroke-opacity:1;stroke-dasharray:none" /><path
             d="m 2947.91,579.059 25.99,95.734 -74.18,-65.934"
             inkscape:connector-curvature="0"
             id="path72"
             style="fill:none;stroke:#000000;stroke-width:9.51012039;stroke-linecap:butt;stroke-linejoin:miter;stroke-miterlimit:10;stroke-opacity:1;stroke-dasharray:none" /></g></g><g
         id="g74"><g
           clip-path="url(#clipPath78)"
           id="g76"><path
             d="M 2755.17,319.117 2355.75,1346.21"
             inkscape:connector-curvature="0"
             id="path82"
             style="fill:none;stroke:#000000;stroke-width:9.51012039;stroke-linecap:butt;stroke-linejoin:miter;stroke-miterlimit:10;stroke-opacity:1;stroke-dasharray:none" /></g></g><g
         id="g84"><g
           clip-path="url(#clipPath88)"
           id="g86"><path
             d="m 2422.95,1251.74 -60.86,77.99 7.6,-98.91"
             inkscape:connector-curvature="0"
             id="path92"
             style="fill:none;stroke:#000000;stroke-width:9.51012039;stroke-linecap:butt;stroke-linejoin:miter;stroke-miterlimit:10;stroke-opacity:1;stroke-dasharray:none" /></g></g><g
         id="g94"><g
           clip-path="url(#clipPath98)"
           id="g96"><g
             transform="matrix(1042.8,0,0,-4.8,-1040.12,1399.08)"
             id="g102"><rect
               width="1"
               height="1"
               x="0"
               y="0"
               transform="matrix(1,0,0,-1,0,1)"
               id="rect104"
               style="fill:#000000;fill-opacity:1;fill-rule:nonzero" /></g></g></g><g
         transform="scale(10,10)"
         id="g106"><text
           transform="matrix(1,0,0,-1,95.8965,240.183)"
           id="text108"><tspan
             x="0"
             y="0"
             id="tspan110"
             style="font-size:17.2154007px;font-variant:normal;font-weight:normal;writing-mode:lr-tb;fill:#000000;fill-opacity:1;fill-rule:nonzero;stroke:none;font-family:CMBX12;-inkscape-font-specification:CMBX12">X</tspan></text>
<text
           transform="matrix(1,0,0,-1,332.8075,111.796)"
           id="text112"><tspan
             x="0"
             y="0"
             id="tspan114"
             style="font-size:17.2154007px;font-variant:normal;font-weight:normal;writing-mode:lr-tb;fill:#000000;fill-opacity:1;fill-rule:nonzero;stroke:none;font-family:CMMI12;-inkscape-font-specification:CMMI12">λ</tspan></text>
<text
           transform="matrix(1,0,0,-1,342.64773,109.27608)"
           id="text116"><tspan
             x="0"
             y="0"
             id="tspan118"
             style="font-size:11.9552002px;font-variant:normal;font-weight:normal;writing-mode:lr-tb;fill:#000000;fill-opacity:1;fill-rule:nonzero;stroke:none;font-family:CMR12;-inkscape-font-specification:CMR12">1</tspan></text>
<text
           transform="matrix(1,0,0,-1,349.0075,111.796)"
           id="text120"><tspan
             x="0"
             y="0"
             id="tspan122"
             style="font-size:17.2154007px;font-variant:normal;font-weight:normal;writing-mode:lr-tb;fill:#000000;fill-opacity:1;fill-rule:nonzero;stroke:none;font-family:CMBX12;-inkscape-font-specification:CMBX12">w</tspan></text>
<text
           transform="matrix(1,0,0,-1,363.0477,109.27608)"
           id="text124"><tspan
             x="0"
             y="0"
             id="tspan126"
             style="font-size:11.9552002px;font-variant:normal;font-weight:normal;writing-mode:lr-tb;fill:#000000;fill-opacity:1;fill-rule:nonzero;stroke:none;font-family:CMR12;-inkscape-font-specification:CMR12">1</tspan></text>
<text
           transform="matrix(1,0,0,-1,30.3857,11.93978)"
           id="text128"><tspan
             x="0"
             y="0"
             id="tspan130"
             style="font-size:17.2154007px;font-variant:normal;font-weight:normal;writing-mode:lr-tb;fill:#000000;fill-opacity:1;fill-rule:nonzero;stroke:none;font-family:CMMI12;-inkscape-font-specification:CMMI12">λ</tspan></text>
<text
           transform="matrix(1,0,0,-1,40.22554,9.29994)"
           id="text132"><tspan
             x="0"
             y="0"
             id="tspan134"
             style="font-size:11.9552002px;font-variant:normal;font-weight:normal;writing-mode:lr-tb;fill:#000000;fill-opacity:1;fill-rule:nonzero;stroke:none;font-family:CMR12;-inkscape-font-specification:CMR12">2</tspan></text>
<text
           transform="matrix(1,0,0,-1,46.5857,11.93978)"
           id="text136"><tspan
             x="0"
             y="0"
             id="tspan138"
             style="font-size:17.2154007px;font-variant:normal;font-weight:normal;writing-mode:lr-tb;fill:#000000;fill-opacity:1;fill-rule:nonzero;stroke:none;font-family:CMBX12;-inkscape-font-specification:CMBX12">w</tspan></text>
<text
           transform="matrix(1,0,0,-1,60.6255,9.29994)"
           id="text140"><tspan
             x="0"
             y="0"
             id="tspan142"
             style="font-size:11.9552002px;font-variant:normal;font-weight:normal;writing-mode:lr-tb;fill:#000000;fill-opacity:1;fill-rule:nonzero;stroke:none;font-family:CMR12;-inkscape-font-specification:CMR12">2</tspan></text>
<text
           transform="matrix(1,0,0,-1,304.3015,51.88234)"
           id="text144"><tspan
             x="0"
             y="0"
             id="tspan146"
             style="font-size:17.2154007px;font-variant:normal;font-weight:normal;writing-mode:lr-tb;fill:#000000;fill-opacity:1;fill-rule:nonzero;stroke:none;font-family:CMBX12;-inkscape-font-specification:CMBX12">w</tspan></text>
<text
           transform="matrix(1,0,0,-1,318.3413,49.2425)"
           id="text148"><tspan
             x="0"
             y="0"
             id="tspan150"
             style="font-size:11.9552002px;font-variant:normal;font-weight:normal;writing-mode:lr-tb;fill:#000000;fill-opacity:1;fill-rule:nonzero;stroke:none;font-family:CMR12;-inkscape-font-specification:CMR12">1</tspan></text>
<text
           transform="matrix(1,0,0,-1,224.4163,43.32336)"
           id="text152"><tspan
             x="0"
             y="0"
             id="tspan154"
             style="font-size:17.2154007px;font-variant:normal;font-weight:normal;writing-mode:lr-tb;fill:#000000;fill-opacity:1;fill-rule:nonzero;stroke:none;font-family:CMBX12;-inkscape-font-specification:CMBX12">w</tspan></text>
<text
           transform="matrix(1,0,0,-1,238.4561,40.80344)"
           id="text156"><tspan
             x="0"
             y="0"
             id="tspan158"
             style="font-size:11.9552002px;font-variant:normal;font-weight:normal;writing-mode:lr-tb;fill:#000000;fill-opacity:1;fill-rule:nonzero;stroke:none;font-family:CMR12;-inkscape-font-specification:CMR12">2</tspan></text>
<text
           transform="matrix(1,0,0,-1,247.21626,128.91434)"
           id="text160"><tspan
             x="0"
             y="0"
             id="tspan162"
             style="font-size:17.2154007px;font-variant:normal;font-weight:normal;writing-mode:lr-tb;fill:#000000;fill-opacity:1;fill-rule:nonzero;stroke:none;font-family:CMBX12;-inkscape-font-specification:CMBX12">v</tspan><tspan
             x="37.150002"
             y="114.121"
             id="tspan164"
             style="font-size:17.2154007px;font-variant:normal;font-weight:normal;writing-mode:lr-tb;fill:#000000;fill-opacity:1;fill-rule:nonzero;stroke:none;font-family:CMBX12;-inkscape-font-specification:CMBX12">0</tspan></text>
<text
           transform="matrix(1,0,0,-1,398.81326,211.65334)"
           id="text166"><tspan
             x="0"
             y="0"
             id="tspan168"
             style="font-size:17.2154007px;font-variant:normal;font-weight:normal;writing-mode:lr-tb;fill:#000000;fill-opacity:1;fill-rule:nonzero;stroke:none;font-family:CMSY10;-inkscape-font-specification:CMSY10">{</tspan></text>
<text
           transform="matrix(1,0,0,-1,407.4531,211.65334)"
           id="text170"><tspan
             x="0"
             y="0"
             id="tspan172"
             style="font-size:17.2154007px;font-variant:normal;font-weight:normal;writing-mode:lr-tb;fill:#000000;fill-opacity:1;fill-rule:nonzero;stroke:none;font-family:CMBX12;-inkscape-font-specification:CMBX12">x</tspan></text>
<text
           transform="matrix(1,0,0,-1,422.4531,211.65334)"
           id="text174"><tspan
             x="0"
             y="0"
             id="tspan176"
             style="font-size:17.2154007px;font-variant:normal;font-weight:normal;writing-mode:lr-tb;fill:#000000;fill-opacity:1;fill-rule:nonzero;stroke:none;font-family:CMR17;-inkscape-font-specification:CMR17">:</tspan></text>
<text
           transform="matrix(1,0,0,-1,431.4531,211.65334)"
           id="text178"><tspan
             x="0"
             y="0"
             id="tspan180"
             style="font-size:17.2154007px;font-variant:normal;font-weight:normal;writing-mode:lr-tb;fill:#000000;fill-opacity:1;fill-rule:nonzero;stroke:none;font-family:CMMI12;-inkscape-font-specification:CMMI12">A</tspan></text>
<text
           transform="matrix(1,0,0,-1,444.0531,211.65334)"
           id="text182"><tspan
             x="0"
             y="0"
             id="tspan184"
             style="font-size:17.2154007px;font-variant:normal;font-weight:normal;writing-mode:lr-tb;fill:#000000;fill-opacity:1;fill-rule:nonzero;stroke:none;font-family:CMBX12;-inkscape-font-specification:CMBX12">x</tspan></text>
<text
           transform="matrix(1,0,0,-1,459.173,211.65334)"
           id="text186"><tspan
             x="0"
             y="0"
             id="tspan188"
             style="font-size:17.2154007px;font-variant:normal;font-weight:normal;writing-mode:lr-tb;fill:#000000;fill-opacity:1;fill-rule:nonzero;stroke:none;font-family:CMR17;-inkscape-font-specification:CMR17">=</tspan></text>
<text
           transform="matrix(1,0,0,-1,476.3332,211.65334)"
           id="text190"><tspan
             x="0"
             y="0"
             id="tspan192"
             style="font-size:17.2154007px;font-variant:normal;font-weight:normal;writing-mode:lr-tb;fill:#000000;fill-opacity:1;fill-rule:nonzero;stroke:none;font-family:CMBX12;-inkscape-font-specification:CMBX12">b</tspan></text>
<text
           transform="matrix(1,0,0,-1,487.1332,211.65334)"
           id="text194"><tspan
             x="0"
             y="0"
             id="tspan196"
             style="font-size:17.2154007px;font-variant:normal;font-weight:normal;writing-mode:lr-tb;fill:#000000;fill-opacity:1;fill-rule:nonzero;stroke:none;font-family:CMSY10;-inkscape-font-specification:CMSY10">}</tspan></text>
<text
           transform="matrix(1,0,0,-1,381.2242,57.58934)"
           id="text198"><tspan
             x="0"
             y="0"
             id="tspan200"
             style="font-size:17.2154007px;font-variant:normal;font-weight:normal;writing-mode:lr-tb;fill:#000000;fill-opacity:1;fill-rule:nonzero;stroke:none;font-family:CMMI12;-inkscape-font-specification:CMMI12">N</tspan></text>
<text
           transform="matrix(1,0,0,-1,394.664,55.06903)"
           id="text202"><tspan
             x="0"
             y="0"
             id="tspan204"
             style="font-size:11.9552002px;font-variant:normal;font-weight:normal;writing-mode:lr-tb;fill:#000000;fill-opacity:1;fill-rule:nonzero;stroke:none;font-family:CMMI12;-inkscape-font-specification:CMMI12">A</tspan></text>
<text
           transform="matrix(1,0,0,-1,408.8242,57.58934)"
           id="text206"><tspan
             x="0"
             y="0"
             id="tspan208"
             style="font-size:17.2154007px;font-variant:normal;font-weight:normal;writing-mode:lr-tb;fill:#000000;fill-opacity:1;fill-rule:nonzero;stroke:none;font-family:CMR17;-inkscape-font-specification:CMR17">=</tspan></text>
<text
           transform="matrix(1,0,0,-1,425.9844,57.58934)"
           id="text210"><tspan
             x="0"
             y="0"
             id="tspan212"
             style="font-size:17.2154007px;font-variant:normal;font-weight:normal;writing-mode:lr-tb;fill:#000000;fill-opacity:1;fill-rule:nonzero;stroke:none;font-family:CMSY10;-inkscape-font-specification:CMSY10">{</tspan></text>
<text
           transform="matrix(1,0,0,-1,434.62424,57.58934)"
           id="text214"><tspan
             x="0"
             y="0"
             id="tspan216"
             style="font-size:17.2154007px;font-variant:normal;font-weight:normal;writing-mode:lr-tb;fill:#000000;fill-opacity:1;fill-rule:nonzero;stroke:none;font-family:CMBX12;-inkscape-font-specification:CMBX12">x</tspan></text>
<text
           transform="matrix(1,0,0,-1,449.62424,57.58934)"
           id="text218"><tspan
             x="0"
             y="0"
             id="tspan220"
             style="font-size:17.2154007px;font-variant:normal;font-weight:normal;writing-mode:lr-tb;fill:#000000;fill-opacity:1;fill-rule:nonzero;stroke:none;font-family:CMR17;-inkscape-font-specification:CMR17">:</tspan></text>
<text
           transform="matrix(1,0,0,-1,458.62424,57.58934)"
           id="text222"><tspan
             x="0"
             y="0"
             id="tspan224"
             style="font-size:17.2154007px;font-variant:normal;font-weight:normal;writing-mode:lr-tb;fill:#000000;fill-opacity:1;fill-rule:nonzero;stroke:none;font-family:CMMI12;-inkscape-font-specification:CMMI12">A</tspan></text>
<text
           transform="matrix(1,0,0,-1,471.22424,57.58934)"
           id="text226"><tspan
             x="0"
             y="0"
             id="tspan228"
             style="font-size:17.2154007px;font-variant:normal;font-weight:normal;writing-mode:lr-tb;fill:#000000;fill-opacity:1;fill-rule:nonzero;stroke:none;font-family:CMBX12;-inkscape-font-specification:CMBX12">x</tspan></text>
<text
           transform="matrix(1,0,0,-1,486.34414,57.58934)"
           id="text230"><tspan
             x="0"
             y="0"
             id="tspan232"
             style="font-size:17.2154007px;font-variant:normal;font-weight:normal;writing-mode:lr-tb;fill:#000000;fill-opacity:1;fill-rule:nonzero;stroke:none;font-family:CMR17;-inkscape-font-specification:CMR17">=</tspan></text>
<text
           transform="matrix(1,0,0,-1,503.50434,57.58934)"
           id="text234"><tspan
             x="0"
             y="0"
             id="tspan236"
             style="font-size:17.2154007px;font-variant:normal;font-weight:normal;writing-mode:lr-tb;fill:#000000;fill-opacity:1;fill-rule:nonzero;stroke:none;font-family:CMBX12;-inkscape-font-specification:CMBX12">0</tspan></text>
<text
           transform="matrix(1,0,0,-1,513.22426,57.58934)"
           id="text238"><tspan
             x="0"
             y="0"
             id="tspan240"
             style="font-size:17.2154007px;font-variant:normal;font-weight:normal;writing-mode:lr-tb;fill:#000000;fill-opacity:1;fill-rule:nonzero;stroke:none;font-family:CMSY10;-inkscape-font-specification:CMSY10">}</tspan></text>
</g></g></g></svg>