<?xml version="1.0" encoding="UTF-8" standalone="no"?>
<!-- Created with Inkscape (http://www.inkscape.org/) -->

<svg
   xmlns:dc="http://purl.org/dc/elements/1.1/"
   xmlns:cc="http://creativecommons.org/ns#"
   xmlns:rdf="http://www.w3.org/1999/02/22-rdf-syntax-ns#"
   xmlns:svg="http://www.w3.org/2000/svg"
   xmlns="http://www.w3.org/2000/svg"
   xmlns:inkscape="http://www.inkscape.org/namespaces/inkscape"
   version="1.1"
   width="521.25"
   height="475"
   id="svg2"
   xml:space="preserve"><metadata
     id="metadata8"><rdf:RDF><cc:Work
         rdf:about=""><dc:format>image/svg+xml</dc:format><dc:type
           rdf:resource="http://purl.org/dc/dcmitype/StillImage" /></cc:Work></rdf:RDF></metadata><defs
     id="defs6"><clipPath
       id="clipPath18"><path
         d="m 2.80078,0 4167.00002,0 0,3799.52 -4167.00002,0 0,-3799.52 z"
         inkscape:connector-curvature="0"
         id="path20" /></clipPath><clipPath
       id="clipPath40"><path
         d="m 2,0 0,3800 4168,0 L 4170,0 2,0 z"
         inkscape:connector-curvature="0"
         id="path42" /></clipPath><clipPath
       id="clipPath46"><path
         d="m 2,0 0,3800 4168,0 L 4170,0 2,0 z m 2241.62,2350.02 87.82,107.44 -68.69,55.93 -87.33,-107.44 0,0 104.01,57.4 -35.81,-113.33 z"
         inkscape:connector-curvature="0"
         id="path48" /></clipPath><clipPath
       id="clipPath56"><path
         d="m 2.80078,0 4167.00002,0 0,3799.52 -4167.00002,0 0,-3799.52 z"
         inkscape:connector-curvature="0"
         id="path58" /></clipPath><clipPath
       id="clipPath66"><path
         d="m -170,4090 0,0 0,0 0,0 z"
         inkscape:connector-curvature="0"
         id="path68" /></clipPath></defs><g
     transform="matrix(1.25,0,0,-1.25,0,475)"
     id="g10"><g
       transform="scale(0.1,0.1)"
       id="g12"><g
         id="g14"><g
           clip-path="url(#clipPath18)"
           id="g16"><path
             d="m 1856.52,1905.52 c 0,-27.36 -22.18,-49.55 -49.55,-49.55 -27.36,0 -49.55,22.19 -49.55,49.55 0,27.36 22.19,49.55 49.55,49.55 27.37,0 49.55,-22.19 49.55,-49.55"
             inkscape:connector-curvature="0"
             id="path22"
             style="fill:#000000;fill-opacity:1;fill-rule:evenodd;stroke:none" /><path
             d="m 1856.52,1905.52 c 0,-27.36 -22.18,-49.55 -49.55,-49.55 -27.36,0 -49.55,22.19 -49.55,49.55 0,27.36 22.19,49.55 49.55,49.55 27.37,0 49.55,-22.19 49.55,-49.55 z"
             inkscape:connector-curvature="0"
             id="path24"
             style="fill:none;stroke:#000000;stroke-width:3.67962003;stroke-linecap:butt;stroke-linejoin:miter;stroke-miterlimit:10;stroke-opacity:1;stroke-dasharray:none" /><path
             d="M 1321.26,1331.5 195.297,1441.89 1387.5,2876.94 4147.21,2700.32 3595.27,1993.83"
             inkscape:connector-curvature="0"
             id="path26"
             style="fill:none;stroke:#000000;stroke-width:14.71850014;stroke-linecap:butt;stroke-linejoin:miter;stroke-miterlimit:10;stroke-opacity:1;stroke-dasharray:none" /><path
             d="M 1321.26,1331.5 2668,183.461 4103.05,1640.59 1255.03,3782.12 18.6758,2391.23 592.699,1905.52"
             inkscape:connector-curvature="0"
             id="path28"
             style="fill:none;stroke:#000000;stroke-width:14.71850014;stroke-linecap:butt;stroke-linejoin:miter;stroke-miterlimit:10;stroke-opacity:1;stroke-dasharray:none" /><path
             d="m 1343.34,1331.5 1589.59,-176.62 684.41,861.03"
             inkscape:connector-curvature="0"
             id="path30"
             style="fill:none;stroke:#000000;stroke-width:14.71850014;stroke-linecap:butt;stroke-linejoin:miter;stroke-miterlimit:10;stroke-opacity:1;stroke-dasharray:73.5923;stroke-dashoffset:0" /><path
             d="M 592.699,1905.52 1321.26,1331.5"
             inkscape:connector-curvature="0"
             id="path32"
             style="fill:none;stroke:#000000;stroke-width:14.71850014;stroke-linecap:butt;stroke-linejoin:miter;stroke-miterlimit:10;stroke-opacity:1;stroke-dasharray:73.5923;stroke-dashoffset:0" /><path
             d="M 3087.48,3428.88 217.375,6.83984"
             inkscape:connector-curvature="0"
             id="path34"
             style="fill:none;stroke:#000000;stroke-width:14.71850014;stroke-linecap:butt;stroke-linejoin:miter;stroke-miterlimit:10;stroke-opacity:1;stroke-dasharray:none" /></g></g><g
         id="g36"><g
           clip-path="url(#clipPath40)"
           id="g38"><g
             clip-path="url(#clipPath46)"
             id="g44"><path
               d="m 1806.97,1883.44 485.71,596.1"
               inkscape:connector-curvature="0"
               id="path50"
               style="fill:none;stroke:#000000;stroke-width:14.71850014;stroke-linecap:butt;stroke-linejoin:miter;stroke-miterlimit:10;stroke-opacity:1;stroke-dasharray:none" /></g></g></g><g
         id="g52"><g
           clip-path="url(#clipPath56)"
           id="g54"><path
             d="m 2243.62,2350.02 35.81,113.33 -104.01,-57.4"
             inkscape:connector-curvature="0"
             id="path60"
             style="fill:none;stroke:#000000;stroke-width:14.71850014;stroke-linecap:butt;stroke-linejoin:miter;stroke-miterlimit:10;stroke-opacity:1;stroke-dasharray:none" /></g></g><g
         id="g62"><g
           clip-path="url(#clipPath66)"
           id="g64"><g
             transform="matrix(1042.8,0,0,-4.8,-1040.12,722.68)"
             id="g70"><rect
               width="1"
               height="1"
               x="0"
               y="0"
               transform="matrix(1,0,0,-1,0,1)"
               id="rect72"
               style="fill:#000000;fill-opacity:1;fill-rule:nonzero" /></g></g></g><g
         transform="scale(10,10)"
         id="g74"><text
           transform="matrix(1,0,0,-1,96.9141,58.0859)"
           id="text76"><tspan
             x="0"
             y="0"
             id="tspan78"
             style="font-size:17.2154007px;font-variant:normal;font-weight:normal;writing-mode:lr-tb;fill:#000000;fill-opacity:1;fill-rule:nonzero;stroke:none;font-family:CMMI12;-inkscape-font-specification:CMMI12">L</tspan><tspan
             x="86.037498"
             y="-192.076"
             id="tspan80"
             style="font-size:17.2154007px;font-variant:normal;font-weight:normal;writing-mode:lr-tb;fill:#000000;fill-opacity:1;fill-rule:nonzero;stroke:none;font-family:CMMI12;-inkscape-font-specification:CMMI12">W</tspan><tspan
             x="101.5945"
             y="-112.5963"
             id="tspan82"
             style="font-size:17.2154007px;font-variant:normal;font-weight:normal;writing-mode:lr-tb;fill:#000000;fill-opacity:1;fill-rule:nonzero;stroke:none;font-family:CMMI12;-inkscape-font-specification:CMMI12">V</tspan><tspan
             x="271.5925"
             y="-227.4003"
             id="tspan84"
             style="font-size:17.2154007px;font-variant:normal;font-weight:normal;writing-mode:lr-tb;fill:#000000;fill-opacity:1;fill-rule:nonzero;stroke:none;font-family:CMMI12;-inkscape-font-specification:CMMI12">P</tspan></text>
<text
           transform="matrix(1,0,0,-1,379.4265,282.96589)"
           id="text86"><tspan
             x="0"
             y="0"
             id="tspan88"
             style="font-size:11.9552002px;font-variant:normal;font-weight:normal;writing-mode:lr-tb;fill:#000000;fill-opacity:1;fill-rule:nonzero;stroke:none;font-family:CMR12;-inkscape-font-specification:CMR12">1</tspan></text>
<text
           transform="matrix(1,0,0,-1,359.6757,84.57889)"
           id="text90"><tspan
             x="0"
             y="0"
             id="tspan92"
             style="font-size:17.2154007px;font-variant:normal;font-weight:normal;writing-mode:lr-tb;fill:#000000;fill-opacity:1;fill-rule:nonzero;stroke:none;font-family:CMMI12;-inkscape-font-specification:CMMI12">P</tspan></text>
<text
           transform="matrix(1,0,0,-1,370.5956,81.93866)"
           id="text94"><tspan
             x="0"
             y="0"
             id="tspan96"
             style="font-size:11.9552002px;font-variant:normal;font-weight:normal;writing-mode:lr-tb;fill:#000000;fill-opacity:1;fill-rule:nonzero;stroke:none;font-family:CMR12;-inkscape-font-specification:CMR12">2</tspan></text>
</g></g></g></svg>