<?xml version="1.0" encoding="UTF-8" standalone="no"?>
<!-- Created with Inkscape (http://www.inkscape.org/) -->

<svg
   xmlns:dc="http://purl.org/dc/elements/1.1/"
   xmlns:cc="http://creativecommons.org/ns#"
   xmlns:rdf="http://www.w3.org/1999/02/22-rdf-syntax-ns#"
   xmlns:svg="http://www.w3.org/2000/svg"
   xmlns="http://www.w3.org/2000/svg"
   xmlns:inkscape="http://www.inkscape.org/namespaces/inkscape"
   version="1.1"
   width="518.75"
   height="208.75"
   id="svg2"
   xml:space="preserve"><metadata
     id="metadata8"><rdf:RDF><cc:Work
         rdf:about=""><dc:format>image/svg+xml</dc:format><dc:type
           rdf:resource="http://purl.org/dc/dcmitype/StillImage" /></cc:Work></rdf:RDF></metadata><defs
     id="defs6"><clipPath
       id="clipPath18"><path
         d="m 0,0 0,1670 4150,0 L 4150,0 0,0 z m 156.559,1512.94 0,88.81 -43.325,0 0,-88.81 0,0 21.661,64.99 21.664,-64.99 z"
         inkscape:connector-curvature="0"
         id="path20" /></clipPath><clipPath
       id="clipPath30"><path
         d="m 0,0 0,1670 4150,0 L 4150,0 0,0 z m 1432.49,323.656 88.82,0 0,43.324 -88.82,0 0,0 64.99,-21.66 -64.99,-21.664 z"
         inkscape:connector-curvature="0"
         id="path32" /></clipPath><clipPath
       id="clipPath42"><path
         d="m 0,0 0,1670 4150,0 L 4150,0 0,0 z m 2788.57,1529.18 0,88.82 -43.32,0 0,-88.82 0,0 21.66,64.99 21.66,-64.99 z"
         inkscape:connector-curvature="0"
         id="path44" /></clipPath><clipPath
       id="clipPath54"><path
         d="m 0,0 0,1670 4150,0 L 4150,0 0,0 z"
         inkscape:connector-curvature="0"
         id="path56" /></clipPath><clipPath
       id="clipPath60"><path
         d="m 0,0 0,1670 4150,0 L 4150,0 0,0 z m 4064.5,307.41 88.82,0 0,43.324 -88.82,0 0,0 64.99,-21.664 -64.99,-21.66 z"
         inkscape:connector-curvature="0"
         id="path62" /></clipPath><clipPath
       id="clipPath78"><path
         d="m 0,0 0,1670 4150,0 L 4150,0 0,0 z"
         inkscape:connector-curvature="0"
         id="path80" /></clipPath><clipPath
       id="clipPath84"><path
         d="m 0,0 0,1670 4150,0 L 4150,0 0,0 z m 3843.18,3.76953 76.55,-21.66013 11.55,41.5195 -76.18,21.6641 0,0 56.68,-38.63284 -68.6,-2.89063 z M 2309.47,1599.59 l -28.17,74.73 -40.43,-15.52 28.16,-74.38 0,0 -2.53,68.24 42.97,-53.07 z"
         inkscape:connector-curvature="0"
         id="path86" /></clipPath><clipPath
       id="clipPath98"><path
         d="m 0,0 0,1670 4150,0 L 4150,0 0,0 z m 2023.88,1060.19 82.32,0 0,32.49 -82.32,0 0,0 64.99,-16.25 -64.99,-16.24 z"
         inkscape:connector-curvature="0"
         id="path100" /></clipPath><clipPath
       id="clipPath112"><path
         d="m -180,1960 0,0 0,0 0,0 z"
         inkscape:connector-curvature="0"
         id="path114" /></clipPath></defs><g
     transform="matrix(1.25,0,0,-1.25,0,208.75)"
     id="g10"><g
       transform="scale(0.1,0.1)"
       id="g12"><g
         id="g14"><g
           clip-path="url(#clipPath18)"
           id="g16"><path
             d="m 134.895,182.848 0,1413.492"
             inkscape:connector-curvature="0"
             id="path22"
             style="fill:none;stroke:#000000;stroke-width:10.83129978;stroke-linecap:butt;stroke-linejoin:miter;stroke-miterlimit:10;stroke-opacity:1;stroke-dasharray:none" /></g></g><path
         d="m 156.559,1512.94 -21.664,64.99 -21.661,-64.99"
         inkscape:connector-curvature="0"
         id="path24"
         style="fill:none;stroke:#000000;stroke-width:10.83129978;stroke-linecap:butt;stroke-linejoin:miter;stroke-miterlimit:10;stroke-opacity:1;stroke-dasharray:none" /><g
         id="g26"><g
           clip-path="url(#clipPath30)"
           id="g28"><path
             d="m 4.92188,345.32 1510.96812,0"
             inkscape:connector-curvature="0"
             id="path34"
             style="fill:none;stroke:#000000;stroke-width:10.83129978;stroke-linecap:butt;stroke-linejoin:miter;stroke-miterlimit:10;stroke-opacity:1;stroke-dasharray:none" /></g></g><path
         d="m 1432.49,323.656 64.99,21.664 -64.99,21.66"
         inkscape:connector-curvature="0"
         id="path36"
         style="fill:none;stroke:#000000;stroke-width:10.83129978;stroke-linecap:butt;stroke-linejoin:miter;stroke-miterlimit:10;stroke-opacity:1;stroke-dasharray:none" /><g
         id="g38"><g
           clip-path="url(#clipPath42)"
           id="g40"><path
             d="m 2766.91,199.098 0,1413.492"
             inkscape:connector-curvature="0"
             id="path46"
             style="fill:none;stroke:#000000;stroke-width:10.83129978;stroke-linecap:butt;stroke-linejoin:miter;stroke-miterlimit:10;stroke-opacity:1;stroke-dasharray:none" /></g></g><path
         d="m 2788.57,1529.18 -21.66,64.99 -21.66,-64.99"
         inkscape:connector-curvature="0"
         id="path48"
         style="fill:none;stroke:#000000;stroke-width:10.83129978;stroke-linecap:butt;stroke-linejoin:miter;stroke-miterlimit:10;stroke-opacity:1;stroke-dasharray:none" /><g
         id="g50"><g
           clip-path="url(#clipPath54)"
           id="g52"><g
             clip-path="url(#clipPath60)"
             id="g58"><path
               d="m 2636.93,329.07 1510.98,0"
               inkscape:connector-curvature="0"
               id="path64"
               style="fill:none;stroke:#000000;stroke-width:10.83129978;stroke-linecap:butt;stroke-linejoin:miter;stroke-miterlimit:10;stroke-opacity:1;stroke-dasharray:none" /></g></g></g><path
         d="m 4064.5,307.41 64.99,21.66 -64.99,21.664"
         inkscape:connector-curvature="0"
         id="path66"
         style="fill:none;stroke:#000000;stroke-width:10.83129978;stroke-linecap:butt;stroke-linejoin:miter;stroke-miterlimit:10;stroke-opacity:1;stroke-dasharray:none" /><path
         d="m 134.895,1027.69 357.437,0 0,-682.37"
         inkscape:connector-curvature="0"
         id="path68"
         style="fill:none;stroke:#000000;stroke-width:2.70782995;stroke-linecap:butt;stroke-linejoin:miter;stroke-miterlimit:10;stroke-opacity:1;stroke-dasharray:none" /><path
         d="M 2312,1531.35 3059.36,1336.39 3530.52,101.613"
         inkscape:connector-curvature="0"
         id="path70"
         style="fill:none;stroke:#000000;stroke-width:2.70782995;stroke-linecap:butt;stroke-linejoin:miter;stroke-miterlimit:10;stroke-opacity:1;stroke-dasharray:none" /><path
         d="M 2532.23,958.734 3295.84,715.027"
         inkscape:connector-curvature="0"
         id="path72"
         style="fill:none;stroke:#000000;stroke-width:2.70782995;stroke-linecap:butt;stroke-linejoin:miter;stroke-miterlimit:10;stroke-opacity:1;stroke-dasharray:none" /><g
         id="g74"><g
           clip-path="url(#clipPath78)"
           id="g76"><g
             clip-path="url(#clipPath84)"
             id="g82"><path
               d="M 2263.25,1661.33 2766.91,329.07 3920.45,4.13281"
               inkscape:connector-curvature="0"
               id="path88"
               style="fill:none;stroke:#000000;stroke-width:5.41566992;stroke-linecap:butt;stroke-linejoin:miter;stroke-miterlimit:10;stroke-opacity:1;stroke-dasharray:none" /></g></g></g><path
         d="m 2309.47,1599.59 -42.97,53.07 2.53,-68.24"
         inkscape:connector-curvature="0"
         id="path90"
         style="fill:none;stroke:#000000;stroke-width:5.41566992;stroke-linecap:butt;stroke-linejoin:miter;stroke-miterlimit:10;stroke-opacity:1;stroke-dasharray:none" /><path
         d="m 3843.18,3.76953 68.6,2.89063 -56.68,38.63284"
         inkscape:connector-curvature="0"
         id="path92"
         style="fill:none;stroke:#000000;stroke-width:5.41566992;stroke-linecap:butt;stroke-linejoin:miter;stroke-miterlimit:10;stroke-opacity:1;stroke-dasharray:none" /><g
         id="g94"><g
           clip-path="url(#clipPath98)"
           id="g96"><path
             d="m 1629.62,1076.43 471.17,0"
             inkscape:connector-curvature="0"
             id="path102"
             style="fill:none;stroke:#000000;stroke-width:5.41566992;stroke-linecap:butt;stroke-linejoin:miter;stroke-miterlimit:10;stroke-opacity:1;stroke-dasharray:none" /></g></g><path
         d="m 2023.88,1060.19 64.99,16.24 -64.99,16.25"
         inkscape:connector-curvature="0"
         id="path104"
         style="fill:none;stroke:#000000;stroke-width:5.41566992;stroke-linecap:butt;stroke-linejoin:miter;stroke-miterlimit:10;stroke-opacity:1;stroke-dasharray:none" /><path
         d="m 134.895,702.754 357.437,0"
         inkscape:connector-curvature="0"
         id="path106"
         style="fill:none;stroke:#000000;stroke-width:2.70782995;stroke-linecap:butt;stroke-linejoin:miter;stroke-miterlimit:10;stroke-opacity:1;stroke-dasharray:none" /><g
         id="g108"><g
           clip-path="url(#clipPath112)"
           id="g110"><g
             transform="matrix(1042.8,0,0,-4.8,-1050.12,657.88)"
             id="g116"><rect
               width="1"
               height="1"
               x="0"
               y="0"
               transform="matrix(1,0,0,-1,0,1)"
               id="rect118"
               style="fill:#000000;fill-opacity:1;fill-rule:nonzero" /></g></g></g><g
         transform="scale(10,10)"
         id="g120"><text
           transform="matrix(1,0,0,-1,140.333,19.9098)"
           id="text122"><tspan
             x="0"
             y="0"
             id="tspan124"
             style="font-size:17.2154007px;font-variant:normal;font-weight:normal;writing-mode:lr-tb;fill:#000000;fill-opacity:1;fill-rule:nonzero;stroke:none;font-family:CMMI12;-inkscape-font-specification:CMMI12">x</tspan><tspan
             x="-118.624"
             y="-131.60001"
             id="tspan126"
             style="font-size:17.2154007px;font-variant:normal;font-weight:normal;writing-mode:lr-tb;fill:#000000;fill-opacity:1;fill-rule:nonzero;stroke:none;font-family:CMMI12;-inkscape-font-specification:CMMI12">y</tspan></text>
<text
           transform="matrix(1,0,0,-1,54.4367,107.643)"
           id="text128"><tspan
             x="0 6.1199841"
             y="0"
             id="tspan130"
             style="font-size:17.2154007px;font-variant:normal;font-weight:normal;writing-mode:lr-tb;fill:#000000;fill-opacity:1;fill-rule:nonzero;stroke:none;font-family:CMR17;-inkscape-font-specification:CMR17">(1</tspan></text>
<text
           transform="matrix(1,0,0,-1,68.4765,107.643)"
           id="text132"><tspan
             x="0"
             y="0"
             id="tspan134"
             style="font-size:17.2154007px;font-variant:normal;font-weight:normal;writing-mode:lr-tb;fill:#000000;fill-opacity:1;fill-rule:nonzero;stroke:none;font-family:CMMI12;-inkscape-font-specification:CMMI12">,</tspan></text>
<text
           transform="matrix(1,0,0,-1,76.03666,107.643)"
           id="text136"><tspan
             x="0 7.91998"
             y="0"
             id="tspan138"
             style="font-size:17.2154007px;font-variant:normal;font-weight:normal;writing-mode:lr-tb;fill:#000000;fill-opacity:1;fill-rule:nonzero;stroke:none;font-family:CMR17;-inkscape-font-specification:CMR17">2)</tspan><tspan
             x="233.478 239.59798"
             y="-32.494099"
             id="tspan140"
             style="font-size:17.2154007px;font-variant:normal;font-weight:normal;writing-mode:lr-tb;fill:#000000;fill-opacity:1;fill-rule:nonzero;stroke:none;font-family:CMR17;-inkscape-font-specification:CMR17">(1</tspan></text>
<text
           transform="matrix(1,0,0,-1,323.55446,140.1371)"
           id="text142"><tspan
             x="0"
             y="0"
             id="tspan144"
             style="font-size:17.2154007px;font-variant:normal;font-weight:normal;writing-mode:lr-tb;fill:#000000;fill-opacity:1;fill-rule:nonzero;stroke:none;font-family:CMMI12;-inkscape-font-specification:CMMI12">,</tspan></text>
<text
           transform="matrix(1,0,0,-1,331.11462,140.1371)"
           id="text146"><tspan
             x="0 7.91998"
             y="0"
             id="tspan148"
             style="font-size:17.2154007px;font-variant:normal;font-weight:normal;writing-mode:lr-tb;fill:#000000;fill-opacity:1;fill-rule:nonzero;stroke:none;font-family:CMR17;-inkscape-font-specification:CMR17">3)</tspan></text>
</g></g></g></svg>