<?xml version="1.0" encoding="UTF-8" standalone="no"?>
<!-- Created with Inkscape (http://www.inkscape.org/) -->

<svg
   xmlns:dc="http://purl.org/dc/elements/1.1/"
   xmlns:cc="http://creativecommons.org/ns#"
   xmlns:rdf="http://www.w3.org/1999/02/22-rdf-syntax-ns#"
   xmlns:svg="http://www.w3.org/2000/svg"
   xmlns="http://www.w3.org/2000/svg"
   xmlns:inkscape="http://www.inkscape.org/namespaces/inkscape"
   version="1.1"
   width="466.25"
   height="297.5"
   id="svg2"
   xml:space="preserve"><metadata
     id="metadata8"><rdf:RDF><cc:Work
         rdf:about=""><dc:format>image/svg+xml</dc:format><dc:type
           rdf:resource="http://purl.org/dc/dcmitype/StillImage" /></cc:Work></rdf:RDF></metadata><defs
     id="defs6"><clipPath
       id="clipPath18"><path
         d="m 0,0 0,2380 3730,0 L 3730,0 0,0 z"
         inkscape:connector-curvature="0"
         id="path20" /></clipPath><clipPath
       id="clipPath24"><path
         d="m 0,0 0,2380 3730,0 L 3730,0 0,0 z m 1323.41,92.4258 69.77,-117.6524 70.68,41.5 -69.77,118.1056 0,0 20.52,-115.3712 -91.2,73.418 z M 664.48,1367.43 l -69.769,117.64 -70.684,-41.49 69.77,-118.11 0,0 -20.063,114.92 90.746,-72.96 z"
         inkscape:connector-curvature="0"
         id="path26" /></clipPath><clipPath
       id="clipPath38"><path
         d="m 0,0 0,2380 3730,0 L 3730,0 0,0 z m 1662.23,1089.71 117.65,70.23 -41.96,70.68 -117.65,-70.22 0,0 115.37,20.52 -73.41,-91.21 z"
         inkscape:connector-curvature="0"
         id="path40" /></clipPath><clipPath
       id="clipPath52"><path
         d="m 0,0 0,2380 3730,0 L 3730,0 0,0 z m 2656.78,1344.17 70.23,-117.65 70.68,41.95 -70.23,117.65 0,0 20.98,-115.37 -91.66,73.42 z m -309.17,679.91 -70.23,117.65 -70.68,-41.95 70.23,-117.66 0,0 -20.52,114.92 91.2,-72.96 z"
         inkscape:connector-curvature="0"
         id="path54" /></clipPath><clipPath
       id="clipPath66"><path
         d="m -370,2680 0,0 0,0 0,0 z"
         inkscape:connector-curvature="0"
         id="path68" /></clipPath></defs><g
     transform="matrix(1.25,0,0,-1.25,0,297.5)"
     id="g10"><g
       transform="scale(0.1,0.1)"
       id="g12"><g
         id="g14"><g
           clip-path="url(#clipPath18)"
           id="g16"><g
             clip-path="url(#clipPath24)"
             id="g22"><path
               d="M 563.246,1458.17 1425.1,1.22266"
               inkscape:connector-curvature="0"
               id="path28"
               style="fill:none;stroke:#000000;stroke-width:13.68029976;stroke-linecap:butt;stroke-linejoin:miter;stroke-miterlimit:10;stroke-opacity:1;stroke-dasharray:none" /></g></g></g><path
         d="m 664.48,1367.43 -90.746,72.96 20.063,-114.92"
         inkscape:connector-curvature="0"
         id="path30"
         style="fill:none;stroke:#000000;stroke-width:13.68029976;stroke-linecap:butt;stroke-linejoin:miter;stroke-miterlimit:10;stroke-opacity:1;stroke-dasharray:none" /><path
         d="m 1323.41,92.4258 91.2,-73.418 -20.52,115.3712"
         inkscape:connector-curvature="0"
         id="path32"
         style="fill:none;stroke:#000000;stroke-width:13.68029976;stroke-linecap:butt;stroke-linejoin:miter;stroke-miterlimit:10;stroke-opacity:1;stroke-dasharray:none" /><g
         id="g34"><g
           clip-path="url(#clipPath38)"
           id="g36"><path
             d="M 994.172,739.957 1753.43,1191.41"
             inkscape:connector-curvature="0"
             id="path42"
             style="fill:none;stroke:#000000;stroke-width:13.68029976;stroke-linecap:butt;stroke-linejoin:miter;stroke-miterlimit:10;stroke-opacity:1;stroke-dasharray:none" /></g></g><path
         d="m 1662.23,1089.71 73.41,91.21 -115.37,-20.52"
         inkscape:connector-curvature="0"
         id="path44"
         style="fill:none;stroke:#000000;stroke-width:13.68029976;stroke-linecap:butt;stroke-linejoin:miter;stroke-miterlimit:10;stroke-opacity:1;stroke-dasharray:none" /><path
         d="M 6.45703,156.266 3720.65,2372.47"
         inkscape:connector-curvature="0"
         id="path46"
         style="fill:none;stroke:#000000;stroke-width:13.68029976;stroke-linecap:butt;stroke-linejoin:miter;stroke-miterlimit:10;stroke-opacity:1;stroke-dasharray:none" /><g
         id="g48"><g
           clip-path="url(#clipPath52)"
           id="g50"><path
             d="m 2245.92,2114.82 513.01,-861.85"
             inkscape:connector-curvature="0"
             id="path56"
             style="fill:none;stroke:#000000;stroke-width:13.68029976;stroke-linecap:butt;stroke-linejoin:miter;stroke-miterlimit:10;stroke-opacity:1;stroke-dasharray:none" /></g></g><path
         d="m 2347.61,2024.08 -91.2,72.96 20.52,-114.92"
         inkscape:connector-curvature="0"
         id="path58"
         style="fill:none;stroke:#000000;stroke-width:13.68029976;stroke-linecap:butt;stroke-linejoin:miter;stroke-miterlimit:10;stroke-opacity:1;stroke-dasharray:none" /><path
         d="m 2656.78,1344.17 91.66,-73.42 -20.98,115.37"
         inkscape:connector-curvature="0"
         id="path60"
         style="fill:none;stroke:#000000;stroke-width:13.68029976;stroke-linecap:butt;stroke-linejoin:miter;stroke-miterlimit:10;stroke-opacity:1;stroke-dasharray:none" /><g
         id="g62"><g
           clip-path="url(#clipPath66)"
           id="g64"><g
             transform="matrix(1042.8,0,0,-4.8,-1051.72,918.28)"
             id="g70"><rect
               width="1"
               height="1"
               x="0"
               y="0"
               transform="matrix(1,0,0,-1,0,1)"
               id="rect72"
               style="fill:#000000;fill-opacity:1;fill-rule:nonzero" /></g></g></g><g
         transform="scale(10,10)"
         id="g74"><text
           transform="matrix(1,0,0,-1,351.922,209.43)"
           id="text76"><tspan
             x="0"
             y="0"
             id="tspan78"
             style="font-size:17.2154007px;font-variant:normal;font-weight:normal;writing-mode:lr-tb;fill:#000000;fill-opacity:1;fill-rule:nonzero;stroke:none;font-family:CMMI12;-inkscape-font-specification:CMMI12">L</tspan><tspan
             x="-180.50101"
             y="110.81"
             id="tspan80"
             style="font-size:17.2154007px;font-variant:normal;font-weight:normal;writing-mode:lr-tb;fill:#000000;fill-opacity:1;fill-rule:nonzero;stroke:none;font-family:CMMI12;-inkscape-font-specification:CMMI12">w</tspan><tspan
             x="-201.03889"
             y="199.0479"
             id="tspan82"
             style="font-size:17.2154007px;font-variant:normal;font-weight:normal;writing-mode:lr-tb;fill:#000000;fill-opacity:1;fill-rule:nonzero;stroke:none;font-family:CMMI12;-inkscape-font-specification:CMMI12">v</tspan></text>
<text
           transform="matrix(1,0,0,-1,89.3655,55.527)"
           id="text84"><tspan
             x="0"
             y="0"
             id="tspan86"
             style="font-size:17.2154007px;font-variant:normal;font-weight:normal;writing-mode:lr-tb;fill:#000000;fill-opacity:1;fill-rule:nonzero;stroke:none;font-family:CMBX12;-inkscape-font-specification:CMBX12">0</tspan></text>
<text
           transform="matrix(1,0,0,-1,70.7319,143.7649)"
           id="text88"><tspan
             x="0"
             y="0"
             id="tspan90"
             style="font-size:17.2154007px;font-variant:normal;font-weight:normal;writing-mode:lr-tb;fill:#000000;fill-opacity:1;fill-rule:nonzero;stroke:none;font-family:CMMI12;-inkscape-font-specification:CMMI12">φ</tspan></text>
<text
           transform="matrix(1,0,0,-1,80.69206,143.7649)"
           id="text92"><tspan
             x="0"
             y="0"
             id="tspan94"
             style="font-size:17.2154007px;font-variant:normal;font-weight:normal;writing-mode:lr-tb;fill:#000000;fill-opacity:1;fill-rule:nonzero;stroke:none;font-family:CMR17;-inkscape-font-specification:CMR17">(</tspan></text>
<text
           transform="matrix(1,0,0,-1,86.81198,143.7649)"
           id="text96"><tspan
             x="0"
             y="0"
             id="tspan98"
             style="font-size:17.2154007px;font-variant:normal;font-weight:normal;writing-mode:lr-tb;fill:#000000;fill-opacity:1;fill-rule:nonzero;stroke:none;font-family:CMMI12;-inkscape-font-specification:CMMI12">v</tspan></text>
<text
           transform="matrix(1,0,0,-1,95.57214,143.7649)"
           id="text100"><tspan
             x="0"
             y="0"
             id="tspan102"
             style="font-size:17.2154007px;font-variant:normal;font-weight:normal;writing-mode:lr-tb;fill:#000000;fill-opacity:1;fill-rule:nonzero;stroke:none;font-family:CMR17;-inkscape-font-specification:CMR17">)</tspan></text>
<text
           transform="matrix(1,0,0,-1,292.35214,141.71256)"
           id="text104"><tspan
             x="0"
             y="0"
             id="tspan106"
             style="font-size:17.2154007px;font-variant:normal;font-weight:normal;writing-mode:lr-tb;fill:#000000;fill-opacity:1;fill-rule:nonzero;stroke:none;font-family:CMMI12;-inkscape-font-specification:CMMI12">φ</tspan></text>
</g></g></g></svg>